<svg width="40" height="40" viewBox="0 0 40 40" fill="none" xmlns="http://www.w3.org/2000/svg">
<path fill-rule="evenodd" clip-rule="evenodd" d="M30.4933 20.8871L26.7053 26.627C26.2091 28.1158 25.3655 29.5217 24.1744 30.7128L18.0421 36.8294C14.0391 40.8326 7.37273 41.0475 3.15464 36.8294C-0.947664 32.7271 -0.947664 26.0599 3.15464 21.9576L9.28688 15.8253C10.4614 14.6508 11.8509 13.7906 13.3726 13.2944L15.4239 13.1621L20.0389 13.3441L20.0886 13.2944C21.6105 13.7906 22.9999 14.6508 24.1744 15.8253C25.3653 17.0163 26.2091 18.4224 26.7053 19.9111L30.4933 20.8871ZM7.29008 32.6939C9.09319 34.497 12.0541 34.5466 13.9068 32.6939L20.039 26.5773L16.6976 23.302L13.3726 20.0103L7.29008 26.0772C5.4705 27.8968 5.4705 30.8744 7.29008 32.6939Z" fill="#013C5E"/>
<path d="M24.1745 30.7127L18.0422 36.8294C14.0391 40.8325 7.37281 41.0475 3.15472 36.8294L7.29008 32.694C9.0932 34.4971 12.0541 34.5467 13.9068 32.694L20.039 26.5774L16.6976 23.3021L24.1745 15.8253C25.3654 17.0162 26.2092 18.4223 26.7054 19.911L30.4934 20.887L26.7054 26.627C26.2092 28.1158 25.3655 29.5217 24.1745 30.7127Z" fill="#384949"/>
<path d="M32.4452 34.0211L30.791 32.3669C30.3339 31.9098 30.3339 31.1699 30.791 30.7127C31.2482 30.2557 31.9881 30.2556 32.4452 30.7127L34.0994 32.3669C34.5566 32.8241 34.5566 33.564 34.0994 34.0211C33.6422 34.4783 32.9024 34.4783 32.4452 34.0211Z" fill="#D2C5C2"/>
<path d="M7.63275 9.20864L5.97849 7.55444C5.52133 7.09729 5.52133 6.35741 5.97849 5.90033C6.43564 5.44326 7.17552 5.44318 7.6326 5.90033L9.28671 7.55444C9.74387 8.0116 9.74387 8.75148 9.28671 9.20856C8.82956 9.66563 8.08983 9.66571 7.63275 9.20864Z" fill="#DFD7D5"/>
<path d="M34.7262 23.8958C34.8933 23.2714 35.5347 22.9015 36.159 23.0687L38.4189 23.6744C39.0434 23.8384 39.4116 24.4829 39.2461 25.1073C39.0789 25.7317 38.4376 26.1016 37.8133 25.9344L35.5533 25.3286C34.933 25.1626 34.5588 24.5239 34.7262 23.8958Z" fill="#D2C5C2"/>
<path d="M0.831901 14.814C0.999075 14.1896 1.6404 13.8197 2.26473 13.9869L4.52469 14.5927C5.14668 14.7558 5.51814 15.4004 5.35182 16.0256C5.18465 16.65 4.54332 17.0199 3.919 16.8527L1.65904 16.2468C1.03876 16.0808 0.664494 15.4421 0.831901 14.814Z" fill="#DFD7D5"/>
<path d="M23.7528 38.3407L23.1469 36.0807C22.9797 35.4563 23.3496 34.815 23.974 34.6479C24.5985 34.4807 25.2389 34.8482 25.4069 35.475L26.0126 37.735C26.1798 38.3594 25.8099 39.0006 25.1855 39.1678C24.5576 39.3351 23.9188 38.9609 23.7528 38.3407Z" fill="#D2C5C2"/>
<path d="M14.671 4.44645L14.0651 2.18649C13.898 1.56208 14.2679 0.920835 14.8923 0.753661C15.5167 0.588125 16.1587 0.953973 16.3251 1.5808L16.9309 3.84076C17.0981 4.46516 16.7282 5.10641 16.1038 5.27358C15.4758 5.44076 14.8371 5.06657 14.671 4.44645Z" fill="#DFD7D5"/>
<path d="M36.9232 3.09199C32.8209 -1.01031 26.1545 -1.02692 22.0357 3.09199L15.9035 9.20864C14.7125 10.3996 13.8689 11.8056 13.3726 13.2944C12.6447 15.478 12.6448 17.8268 13.3726 20.0104C13.8689 21.499 14.7125 22.9052 15.9035 24.0962C17.0614 25.2542 18.4509 26.1142 19.9893 26.627L20.0389 26.5774C21.8586 24.7578 21.8585 21.7803 20.0389 19.9608C18.2193 18.1412 18.2193 15.1636 20.0389 13.3441L26.1712 7.22743C27.0645 6.33409 28.2224 5.87102 29.4796 5.87102C29.5126 5.83803 29.7938 5.85448 29.86 5.88755C30.7533 5.88747 31.9276 6.36716 32.7878 7.22743C34.6074 9.047 34.6075 12.0245 32.7878 13.8441L26.7053 19.911C27.4332 22.0946 27.4332 24.4435 26.7053 26.627C28.2105 26.1143 29.6332 25.2541 30.7911 24.0961L36.9234 17.9795C41.0257 13.8771 41.0255 7.19429 36.9232 3.09199Z" fill="#0086CA"/>
<path d="M20.039 26.5773L19.9894 26.6269C18.4511 26.1141 17.0615 25.254 15.9036 24.096L20.039 19.9606C21.8586 21.7803 21.8587 24.7577 20.039 26.5773Z" fill="#0086CA"/>
<path d="M36.9232 17.9796L30.791 24.0962C29.6331 25.2542 28.2105 26.1144 26.7052 26.6271C27.4331 24.4436 27.4331 22.0946 26.7052 19.9111L32.7877 13.8442C34.6073 12.0245 34.6073 9.04708 32.7877 7.22751L36.9231 3.09207C41.0255 7.19429 41.0257 13.8771 36.9232 17.9796Z" fill="#0086CA"/>
</svg>
    