<svg width="40" height="40" viewBox="0 0 40 40" fill="none" xmlns="http://www.w3.org/2000/svg">
<path d="M30.5469 1.17188V9.45312L9.45312 30.5469H1.17188C0.515547 30.5469 0 30.0313 0 29.375V1.17188C0 0.515547 0.515547 0 1.17188 0H29.375C30.0313 0 30.5469 0.515547 30.5469 1.17188Z" fill="#013C5E"/>
<path d="M40 10.625V38.8281C40 39.4845 39.4845 40 38.8281 40H10.625C9.96867 40 9.45312 39.4845 9.45312 38.8281V30.5469L30.5469 9.45312H38.8281C39.4845 9.45312 40 9.96867 40 10.625Z" fill="#0086CA"/>
<path d="M30.5469 9.45312V29.375C30.5469 30.0313 30.0313 30.5469 29.375 30.5469H9.45312V10.625C9.45312 9.96867 9.96867 9.45312 10.625 9.45312H30.5469Z" fill="#CAE8F9"/>
<path d="M40 10.625V38.8281C40 39.4845 39.4845 40 38.8281 40H20V20L30.5469 9.45312H38.8281C39.4845 9.45312 40 9.96867 40 10.625Z" fill="#0086CA"/>
<path d="M30.5469 1.17188V9.45312L20 20V0H29.375C30.0313 0 30.5469 0.515547 30.5469 1.17188Z" fill="#013C5E"/>
<path d="M30.5469 9.45312V29.375C30.5469 30.0313 30.0313 30.5469 29.375 30.5469H20V9.45312H30.5469Z" fill="#B7E0F6"/>
<path d="M10.625 14.1406C9.97727 14.1406 9.45312 13.6165 9.45312 12.9688V10.625C9.45312 9.97727 9.97727 9.45312 10.625 9.45312H12.9688C13.6165 9.45312 14.1406 9.97727 14.1406 10.625C14.1406 11.2727 13.6165 11.7969 12.9688 11.7969H11.7969V12.9688C11.7969 13.6165 11.2727 14.1406 10.625 14.1406Z" fill="white"/>
<path d="M27.0312 9.45312C26.3835 9.45312 25.8594 9.97727 25.8594 10.625C25.8594 11.2727 26.3835 11.7969 27.0312 11.7969H28.2031V12.9688C28.2031 13.6165 28.7273 14.1406 29.375 14.1406C30.0227 14.1406 30.5469 13.6165 30.5469 12.9688V9.45312H27.0312Z" fill="white"/>
<path d="M29.375 23.5156C28.7273 23.5156 28.2031 22.9915 28.2031 22.3438V17.6562C28.2031 17.0085 28.7273 16.4844 29.375 16.4844C30.0227 16.4844 30.5469 17.0085 30.5469 17.6562V22.3438C30.5469 22.9915 30.0227 23.5156 29.375 23.5156Z" fill="white"/>
<path d="M29.375 30.5469H27.0312C26.3835 30.5469 25.8594 30.0227 25.8594 29.375C25.8594 28.7273 26.3835 28.2031 27.0312 28.2031H28.2031V27.0312C28.2031 26.3835 28.7273 25.8594 29.375 25.8594C30.0227 25.8594 30.5469 26.3835 30.5469 27.0312V29.375C30.5469 30.0227 30.0227 30.5469 29.375 30.5469Z" fill="white"/>
<path d="M12.9688 28.2031H11.7969V27.0312C11.7969 26.3835 11.2727 25.8594 10.625 25.8594C9.97727 25.8594 9.45312 26.3835 9.45312 27.0312V30.5469H12.9688C13.6165 30.5469 14.1406 30.0227 14.1406 29.375C14.1406 28.7273 13.6165 28.2031 12.9688 28.2031Z" fill="white"/>
<path d="M23.5156 29.375C23.5156 30.0313 23.0001 30.5469 22.3438 30.5469H17.6562C16.9999 30.5469 16.4844 30.0313 16.4844 29.375C16.4844 28.7187 16.9999 28.2031 17.6562 28.2031H22.3438C23.0001 28.2031 23.5156 28.7187 23.5156 29.375Z" fill="white"/>
<path d="M23.5156 10.625C23.5156 11.2813 23.0001 11.7969 22.3438 11.7969H17.6562C16.9999 11.7969 16.4844 11.2813 16.4844 10.625C16.4844 9.96867 16.9999 9.45312 17.6562 9.45312H22.3438C23.0001 9.45312 23.5156 9.96867 23.5156 10.625Z" fill="white"/>
<path d="M22.3438 11.7969C23.0001 11.7969 23.5156 11.2813 23.5156 10.625C23.5156 9.96867 23.0001 9.45312 22.3438 9.45312H20V11.7969H22.3438Z" fill="white"/>
<path d="M10.625 23.5156C9.97727 23.5156 9.45312 22.9915 9.45312 22.3438V17.6562C9.45312 17.0085 9.97727 16.4844 10.625 16.4844C11.2727 16.4844 11.7969 17.0085 11.7969 17.6562V22.3438C11.7969 22.9915 11.2727 23.5156 10.625 23.5156Z" fill="white"/>
<path d="M23.5156 29.375C23.5156 30.0313 23.0001 30.5469 22.3438 30.5469H20V28.2031H22.3438C23.0001 28.2031 23.5156 28.7187 23.5156 29.375Z" fill="white"/>
</svg>
