<svg width="178" height="31" viewBox="0 0 178 31" fill="none" xmlns="http://www.w3.org/2000/svg">
<g filter="url(#filter0_d_4_14)">
<mask id="path-1-outside-1_4_14" maskUnits="userSpaceOnUse" x="3" y="-1" width="173" height="25" fill="black">
<rect fill="white" x="3" y="-1" width="173" height="25"/>
<path d="M5.24 22L4.484 0.939999H9.56L8.804 22H5.24ZM33.1629 22.351L21.9309 6.232L19.5279 22.351H19.0959L17.3679 0.939999H21.7959L31.0299 12.118L33.8919 0.669999H34.4049L33.3789 22.351H33.1629ZM57.4292 16.438C57.3212 17.986 56.8892 19.21 56.1332 20.11C55.3772 20.992 54.4232 21.622 53.2712 22C52.1372 22.36 50.9132 22.54 49.5992 22.54C48.6632 22.54 47.6462 22.297 46.5482 21.811C45.4682 21.325 44.4152 20.596 43.3892 19.624C42.3632 18.652 41.4632 17.428 40.6892 15.952L40.8782 15.763C41.5982 16.321 42.3632 16.825 43.1732 17.275C44.0012 17.725 44.8202 18.112 45.6302 18.436C46.4402 18.742 47.1872 18.976 47.8712 19.138C48.5732 19.3 49.1402 19.381 49.5722 19.381C50.4182 19.381 51.1292 19.183 51.7052 18.787C52.2992 18.391 52.6412 17.734 52.7312 16.816V16.735C52.7312 16.339 52.4702 15.925 51.9482 15.493C51.4262 15.043 50.7422 14.566 49.8962 14.062C49.0682 13.558 48.1862 13.027 47.2502 12.469C46.3322 11.911 45.4592 11.335 44.6312 10.741C43.8032 10.129 43.1192 9.499 42.5792 8.851C42.0572 8.203 41.7962 7.528 41.7962 6.826C41.7962 6.736 41.7962 6.664 41.7962 6.61C41.7962 6.538 41.8052 6.466 41.8232 6.394C42.0392 5.188 42.5162 4.135 43.2542 3.235C44.0102 2.335 44.9102 1.633 45.9542 1.129C47.0162 0.624998 48.1142 0.372998 49.2482 0.372998C50.4002 0.372998 51.6332 0.552999 52.9472 0.913C54.2792 1.255 55.6382 1.75 57.0242 2.398L55.5122 6.799C54.1082 5.431 52.9022 4.423 51.8942 3.775C50.8862 3.127 49.9322 2.803 49.0322 2.803C48.0602 2.803 47.3132 3.046 46.7912 3.532C46.2872 4 45.9992 4.792 45.9272 5.908V5.989C45.9272 6.403 46.1342 6.817 46.5482 7.231C46.9622 7.645 47.5112 8.068 48.1952 8.5C48.8792 8.914 49.6262 9.346 50.4362 9.796C51.2642 10.228 52.0832 10.687 52.8932 11.173C53.7212 11.641 54.4772 12.145 55.1612 12.685C55.8452 13.207 56.3942 13.765 56.8082 14.359C57.2222 14.935 57.4292 15.556 57.4292 16.222V16.438ZM73.1683 22.54C72.1423 22.54 71.0623 22.288 69.9283 21.784C68.8123 21.262 67.7593 20.515 66.7693 19.543C65.7793 18.571 64.9783 17.401 64.3663 16.033C63.7543 14.665 63.4483 13.126 63.4483 11.416C63.4483 10.084 63.6463 8.851 64.0423 7.717C64.4563 6.565 65.0053 5.539 65.6893 4.639C66.3733 3.739 67.1383 2.974 67.9843 2.344C68.8303 1.696 69.6943 1.21 70.5763 0.885998C71.4763 0.543998 72.3403 0.372998 73.1683 0.372998C73.9783 0.372998 74.8243 0.543998 75.7063 0.885998C76.6063 1.228 77.4703 1.723 78.2983 2.371C79.1443 3.001 79.9093 3.766 80.5933 4.666C81.2773 5.566 81.8173 6.583 82.2133 7.717C82.6093 8.851 82.8073 10.084 82.8073 11.416C82.8073 13.126 82.5013 14.665 81.8893 16.033C81.2773 17.401 80.4853 18.571 79.5133 19.543C78.5413 20.515 77.4973 21.262 76.3813 21.784C75.2653 22.288 74.1943 22.54 73.1683 22.54ZM74.2483 20.218C75.0943 20.218 75.8413 19.939 76.4893 19.381C77.1373 18.823 77.6413 18.049 78.0013 17.059C78.3793 16.051 78.5683 14.89 78.5683 13.576C78.5683 11.758 78.3613 10.174 77.9473 8.824C77.5333 7.456 76.9933 6.322 76.3273 5.422C75.6613 4.522 74.9503 3.847 74.1943 3.397C73.4563 2.947 72.7543 2.722 72.0883 2.722C71.2603 2.722 70.5133 3.001 69.8473 3.559C69.1813 4.099 68.6503 4.855 68.2543 5.827C67.8763 6.799 67.6873 7.942 67.6873 9.256C67.6873 11.182 67.8943 12.838 68.3083 14.224C68.7403 15.61 69.2893 16.744 69.9553 17.626C70.6393 18.508 71.3593 19.165 72.1153 19.597C72.8713 20.011 73.5823 20.218 74.2483 20.218ZM106.906 22L106.123 6.205L100.102 19.948H99.9129L93.8649 6.205L91.4079 22.378H91.0029L89.5179 0.939999H94.4859L101.047 11.848L106.069 0.939999H110.47L110.065 22H106.906ZM133.941 22.351L122.709 6.232L120.306 22.351H119.874L118.146 0.939999H122.574L131.808 12.118L134.67 0.669999H135.183L134.157 22.351H133.941ZM143.844 22L143.088 0.939999H148.164L147.408 22H143.844ZM170.713 22.297L167.527 15.493L156.835 17.356L154.027 22.297H153.622L160.993 0.966999L165.259 0.318999L173.899 21.946L170.713 22.297ZM163.126 6.097L158.941 13.576L167.203 14.845L163.126 6.097Z"/>
</mask>
<path d="M5.24 22L4.484 0.939999H9.56L8.804 22H5.24ZM33.1629 22.351L21.9309 6.232L19.5279 22.351H19.0959L17.3679 0.939999H21.7959L31.0299 12.118L33.8919 0.669999H34.4049L33.3789 22.351H33.1629ZM57.4292 16.438C57.3212 17.986 56.8892 19.21 56.1332 20.11C55.3772 20.992 54.4232 21.622 53.2712 22C52.1372 22.36 50.9132 22.54 49.5992 22.54C48.6632 22.54 47.6462 22.297 46.5482 21.811C45.4682 21.325 44.4152 20.596 43.3892 19.624C42.3632 18.652 41.4632 17.428 40.6892 15.952L40.8782 15.763C41.5982 16.321 42.3632 16.825 43.1732 17.275C44.0012 17.725 44.8202 18.112 45.6302 18.436C46.4402 18.742 47.1872 18.976 47.8712 19.138C48.5732 19.3 49.1402 19.381 49.5722 19.381C50.4182 19.381 51.1292 19.183 51.7052 18.787C52.2992 18.391 52.6412 17.734 52.7312 16.816V16.735C52.7312 16.339 52.4702 15.925 51.9482 15.493C51.4262 15.043 50.7422 14.566 49.8962 14.062C49.0682 13.558 48.1862 13.027 47.2502 12.469C46.3322 11.911 45.4592 11.335 44.6312 10.741C43.8032 10.129 43.1192 9.499 42.5792 8.851C42.0572 8.203 41.7962 7.528 41.7962 6.826C41.7962 6.736 41.7962 6.664 41.7962 6.61C41.7962 6.538 41.8052 6.466 41.8232 6.394C42.0392 5.188 42.5162 4.135 43.2542 3.235C44.0102 2.335 44.9102 1.633 45.9542 1.129C47.0162 0.624998 48.1142 0.372998 49.2482 0.372998C50.4002 0.372998 51.6332 0.552999 52.9472 0.913C54.2792 1.255 55.6382 1.75 57.0242 2.398L55.5122 6.799C54.1082 5.431 52.9022 4.423 51.8942 3.775C50.8862 3.127 49.9322 2.803 49.0322 2.803C48.0602 2.803 47.3132 3.046 46.7912 3.532C46.2872 4 45.9992 4.792 45.9272 5.908V5.989C45.9272 6.403 46.1342 6.817 46.5482 7.231C46.9622 7.645 47.5112 8.068 48.1952 8.5C48.8792 8.914 49.6262 9.346 50.4362 9.796C51.2642 10.228 52.0832 10.687 52.8932 11.173C53.7212 11.641 54.4772 12.145 55.1612 12.685C55.8452 13.207 56.3942 13.765 56.8082 14.359C57.2222 14.935 57.4292 15.556 57.4292 16.222V16.438ZM73.1683 22.54C72.1423 22.54 71.0623 22.288 69.9283 21.784C68.8123 21.262 67.7593 20.515 66.7693 19.543C65.7793 18.571 64.9783 17.401 64.3663 16.033C63.7543 14.665 63.4483 13.126 63.4483 11.416C63.4483 10.084 63.6463 8.851 64.0423 7.717C64.4563 6.565 65.0053 5.539 65.6893 4.639C66.3733 3.739 67.1383 2.974 67.9843 2.344C68.8303 1.696 69.6943 1.21 70.5763 0.885998C71.4763 0.543998 72.3403 0.372998 73.1683 0.372998C73.9783 0.372998 74.8243 0.543998 75.7063 0.885998C76.6063 1.228 77.4703 1.723 78.2983 2.371C79.1443 3.001 79.9093 3.766 80.5933 4.666C81.2773 5.566 81.8173 6.583 82.2133 7.717C82.6093 8.851 82.8073 10.084 82.8073 11.416C82.8073 13.126 82.5013 14.665 81.8893 16.033C81.2773 17.401 80.4853 18.571 79.5133 19.543C78.5413 20.515 77.4973 21.262 76.3813 21.784C75.2653 22.288 74.1943 22.54 73.1683 22.54ZM74.2483 20.218C75.0943 20.218 75.8413 19.939 76.4893 19.381C77.1373 18.823 77.6413 18.049 78.0013 17.059C78.3793 16.051 78.5683 14.89 78.5683 13.576C78.5683 11.758 78.3613 10.174 77.9473 8.824C77.5333 7.456 76.9933 6.322 76.3273 5.422C75.6613 4.522 74.9503 3.847 74.1943 3.397C73.4563 2.947 72.7543 2.722 72.0883 2.722C71.2603 2.722 70.5133 3.001 69.8473 3.559C69.1813 4.099 68.6503 4.855 68.2543 5.827C67.8763 6.799 67.6873 7.942 67.6873 9.256C67.6873 11.182 67.8943 12.838 68.3083 14.224C68.7403 15.61 69.2893 16.744 69.9553 17.626C70.6393 18.508 71.3593 19.165 72.1153 19.597C72.8713 20.011 73.5823 20.218 74.2483 20.218ZM106.906 22L106.123 6.205L100.102 19.948H99.9129L93.8649 6.205L91.4079 22.378H91.0029L89.5179 0.939999H94.4859L101.047 11.848L106.069 0.939999H110.47L110.065 22H106.906ZM133.941 22.351L122.709 6.232L120.306 22.351H119.874L118.146 0.939999H122.574L131.808 12.118L134.67 0.669999H135.183L134.157 22.351H133.941ZM143.844 22L143.088 0.939999H148.164L147.408 22H143.844ZM170.713 22.297L167.527 15.493L156.835 17.356L154.027 22.297H153.622L160.993 0.966999L165.259 0.318999L173.899 21.946L170.713 22.297ZM163.126 6.097L158.941 13.576L167.203 14.845L163.126 6.097Z" fill="#00476C"/>
<path d="M5.24 22L4.24064 22.0359L4.27525 23H5.24V22ZM4.484 0.939999V-0.0600009H3.44746L3.48464 0.975873L4.484 0.939999ZM9.56 0.939999L10.5594 0.975873L10.5965 -0.0600009H9.56V0.939999ZM8.804 22V23H9.76875L9.80336 22.0359L8.804 22ZM6.23936 21.9641L5.48336 0.904125L3.48464 0.975873L4.24064 22.0359L6.23936 21.9641ZM4.484 1.94H9.56V-0.0600009H4.484V1.94ZM8.56064 0.904125L7.80464 21.9641L9.80336 22.0359L10.5594 0.975873L8.56064 0.904125ZM8.804 21H5.24V23H8.804V21ZM33.1629 22.351L32.3424 22.9227L32.6409 23.351H33.1629V22.351ZM21.9309 6.232L22.7514 5.66029L21.3128 3.59588L20.9418 6.08455L21.9309 6.232ZM19.5279 22.351V23.351H20.3899L20.517 22.4984L19.5279 22.351ZM19.0959 22.351L18.0991 22.4314L18.1734 23.351H19.0959V22.351ZM17.3679 0.939999V-0.0600009H16.2839L16.3711 1.02044L17.3679 0.939999ZM21.7959 0.939999L22.5669 0.303118L22.2669 -0.0600009H21.7959V0.939999ZM31.0299 12.118L30.2589 12.7549L31.5199 14.2813L32 12.3605L31.0299 12.118ZM33.8919 0.669999V-0.330001H33.1111L32.9218 0.427464L33.8919 0.669999ZM34.4049 0.669999L35.4038 0.717269L35.4533 -0.330001H34.4049V0.669999ZM33.3789 22.351V23.351H34.3327L34.3778 22.3983L33.3789 22.351ZM33.9834 21.7793L22.7514 5.66029L21.1104 6.80371L32.3424 22.9227L33.9834 21.7793ZM20.9418 6.08455L18.5388 22.2036L20.517 22.4984L22.92 6.37945L20.9418 6.08455ZM19.5279 21.351H19.0959V23.351H19.5279V21.351ZM20.0927 22.2706L18.3647 0.859555L16.3711 1.02044L18.0991 22.4314L20.0927 22.2706ZM17.3679 1.94H21.7959V-0.0600009H17.3679V1.94ZM21.0249 1.57688L30.2589 12.7549L31.8009 11.4811L22.5669 0.303118L21.0249 1.57688ZM32 12.3605L34.862 0.912535L32.9218 0.427464L30.0598 11.8755L32 12.3605ZM33.8919 1.67H34.4049V-0.330001H33.8919V1.67ZM33.406 0.62273L32.38 22.3037L34.3778 22.3983L35.4038 0.717269L33.406 0.62273ZM33.3789 21.351H33.1629V23.351H33.3789V21.351ZM57.4292 16.438L58.4268 16.5076L58.4292 16.4728V16.438H57.4292ZM56.1332 20.11L56.8925 20.7608L56.8989 20.7532L56.1332 20.11ZM53.2712 22L53.5738 22.9532L53.583 22.9502L53.2712 22ZM46.5482 21.811L46.1378 22.7229L46.1434 22.7254L46.5482 21.811ZM43.3892 19.624L42.7015 20.35L43.3892 19.624ZM40.6892 15.952L39.9821 15.2449L39.462 15.765L39.8036 16.4164L40.6892 15.952ZM40.8782 15.763L41.4908 14.9726L40.7942 14.4328L40.1711 15.0559L40.8782 15.763ZM43.1732 17.275L42.6875 18.1492L42.6957 18.1536L43.1732 17.275ZM45.6302 18.436L45.2588 19.3645L45.2678 19.3681L45.2768 19.3715L45.6302 18.436ZM47.8712 19.138L47.6407 20.1111L47.6463 20.1124L47.8712 19.138ZM51.7052 18.787L51.1505 17.955L51.1446 17.9589L51.1387 17.963L51.7052 18.787ZM52.7312 16.816L53.7264 16.9136L53.7312 16.8649V16.816H52.7312ZM51.9482 15.493L51.2953 16.2504L51.3029 16.257L51.3106 16.2634L51.9482 15.493ZM49.8962 14.062L49.3762 14.9162L49.3844 14.9211L49.8962 14.062ZM47.2502 12.469L46.7308 13.3236L46.7381 13.3279L47.2502 12.469ZM44.6312 10.741L44.0368 11.5452L44.0425 11.5494L44.0483 11.5535L44.6312 10.741ZM42.5792 8.851L41.8004 9.47833L41.8057 9.4848L41.811 9.49118L42.5792 8.851ZM41.8232 6.394L42.7933 6.63653L42.8016 6.60366L42.8075 6.5703L41.8232 6.394ZM43.2542 3.235L42.4884 2.59176L42.4809 2.60092L43.2542 3.235ZM45.9542 1.129L45.5254 0.225553L45.5194 0.228447L45.9542 1.129ZM52.9472 0.913L52.683 1.87746L52.6907 1.87958L52.6985 1.88158L52.9472 0.913ZM57.0242 2.398L57.9699 2.72292L58.262 1.87282L57.4477 1.49212L57.0242 2.398ZM55.5122 6.799L54.8143 7.51523L55.945 8.61691L56.4579 7.12392L55.5122 6.799ZM51.8942 3.775L51.3534 4.61618V4.61618L51.8942 3.775ZM46.7912 3.532L47.4716 4.26479L47.4726 4.26389L46.7912 3.532ZM45.9272 5.908L44.9293 5.84362L44.9272 5.87578V5.908H45.9272ZM46.5482 7.231L45.8411 7.93811L46.5482 7.231ZM48.1952 8.5L47.6612 9.34549L47.6693 9.35057L47.6774 9.3555L48.1952 8.5ZM50.4362 9.796L49.9506 10.6702L49.962 10.6765L49.9736 10.6826L50.4362 9.796ZM52.8932 11.173L52.3787 12.0305L52.3898 12.0372L52.4011 12.0436L52.8932 11.173ZM55.1612 12.685L54.5415 13.4699L54.548 13.475L54.5545 13.4799L55.1612 12.685ZM56.8082 14.359L55.9878 14.9308L55.9919 14.9367L55.9962 14.9426L56.8082 14.359ZM56.4316 16.3684C56.3337 17.7726 55.9499 18.7735 55.3675 19.4668L56.8989 20.7532C57.8285 19.6465 58.3087 18.1994 58.4268 16.5076L56.4316 16.3684ZM55.3739 19.4592C54.7423 20.1962 53.9456 20.7262 52.9594 21.0498L53.583 22.9502C54.9007 22.5178 56.0121 21.7878 56.8925 20.7608L55.3739 19.4592ZM52.9686 21.0469C51.9421 21.3728 50.8212 21.54 49.5992 21.54V23.54C51.0052 23.54 52.3323 23.3472 53.5738 22.9531L52.9686 21.0469ZM49.5992 21.54C48.8361 21.54 47.9581 21.3415 46.9529 20.8966L46.1434 22.7254C47.3343 23.2525 48.4903 23.54 49.5992 23.54V21.54ZM46.9586 20.8991C45.9984 20.467 45.0369 19.8074 44.0769 18.898L42.7015 20.35C43.7935 21.3846 44.938 22.183 46.1378 22.7229L46.9586 20.8991ZM44.0769 18.898C43.1437 18.0139 42.3066 16.8832 41.5748 15.4876L39.8036 16.4164C40.6198 17.9728 41.5827 19.2901 42.7015 20.35L44.0769 18.898ZM41.3963 16.6591L41.5853 16.4701L40.1711 15.0559L39.9821 15.2449L41.3963 16.6591ZM40.2656 16.5534C41.0264 17.143 41.8339 17.6749 42.6876 18.1492L43.6588 16.4008C42.8924 15.9751 42.17 15.499 41.4908 14.9726L40.2656 16.5534ZM42.6957 18.1536C43.5553 18.6208 44.4097 19.0248 45.2588 19.3645L46.0016 17.5075C45.2307 17.1992 44.447 16.8292 43.6507 16.3964L42.6957 18.1536ZM45.2768 19.3715C46.1181 19.6893 46.9067 19.9372 47.6407 20.1111L48.1017 18.1649C47.4677 18.0148 46.7623 17.7947 45.9836 17.5005L45.2768 19.3715ZM47.6463 20.1124C48.3802 20.2817 49.0311 20.381 49.5722 20.381V18.381C49.2493 18.381 48.7662 18.3183 48.0961 18.1636L47.6463 20.1124ZM49.5722 20.381C50.5773 20.381 51.4967 20.1439 52.2717 19.611L51.1387 17.963C50.7617 18.2221 50.2591 18.381 49.5722 18.381V20.381ZM52.2599 19.6191C53.1727 19.0105 53.6164 18.0359 53.7264 16.9136L51.736 16.7184C51.666 17.4321 51.4257 17.7715 51.1505 17.955L52.2599 19.6191ZM53.7312 16.816V16.735H51.7312V16.816H53.7312ZM53.7312 16.735C53.7312 15.8842 53.1801 15.2145 52.5858 14.7226L51.3106 16.2634C51.519 16.4359 51.6325 16.5704 51.6895 16.6608C51.7431 16.7458 51.7312 16.7658 51.7312 16.735H53.7312ZM52.6011 14.7356C52.0209 14.2354 51.2846 13.7251 50.408 13.2029L49.3844 14.9211C50.1998 15.4069 50.8315 15.8506 51.2953 16.2504L52.6011 14.7356ZM50.4161 13.2078C49.5852 12.702 48.7006 12.1694 47.7623 11.6101L46.7381 13.3279C47.6718 13.8846 48.5512 14.414 49.3762 14.9162L50.4161 13.2078ZM47.7696 11.6145C46.8721 11.069 46.0204 10.5069 45.2141 9.92846L44.0483 11.5535C44.898 12.1631 45.7923 12.753 46.7308 13.3235L47.7696 11.6145ZM45.2256 9.93682C44.4483 9.36232 43.8265 8.78568 43.3474 8.21082L41.811 9.49118C42.4119 10.2123 43.1581 10.8957 44.0368 11.5452L45.2256 9.93682ZM43.3579 8.22367C42.9515 7.7191 42.7962 7.25929 42.7962 6.826H40.7962C40.7962 7.79671 41.1629 8.6869 41.8004 9.47833L43.3579 8.22367ZM42.7962 6.826C42.7962 6.82582 42.7962 6.82565 42.7962 6.82547C42.7962 6.8253 42.7962 6.82512 42.7962 6.82495C42.7962 6.82477 42.7962 6.82459 42.7962 6.82442C42.7962 6.82424 42.7962 6.82407 42.7962 6.82389C42.7962 6.82372 42.7962 6.82354 42.7962 6.82337C42.7962 6.82319 42.7962 6.82302 42.7962 6.82284C42.7962 6.82267 42.7962 6.82249 42.7962 6.82232C42.7962 6.82214 42.7962 6.82197 42.7962 6.82179C42.7962 6.82162 42.7962 6.82144 42.7962 6.82127C42.7962 6.8211 42.7962 6.82092 42.7962 6.82075C42.7962 6.82057 42.7962 6.8204 42.7962 6.82022C42.7962 6.82005 42.7962 6.81987 42.7962 6.8197C42.7962 6.81953 42.7962 6.81935 42.7962 6.81918C42.7962 6.819 42.7962 6.81883 42.7962 6.81866C42.7962 6.81848 42.7962 6.81831 42.7962 6.81814C42.7962 6.81796 42.7962 6.81779 42.7962 6.81761C42.7962 6.81744 42.7962 6.81727 42.7962 6.81709C42.7962 6.81692 42.7962 6.81675 42.7962 6.81657C42.7962 6.8164 42.7962 6.81623 42.7962 6.81605C42.7962 6.81588 42.7962 6.81571 42.7962 6.81553C42.7962 6.81536 42.7962 6.81519 42.7962 6.81502C42.7962 6.81484 42.7962 6.81467 42.7962 6.8145C42.7962 6.81432 42.7962 6.81415 42.7962 6.81398C42.7962 6.81381 42.7962 6.81363 42.7962 6.81346C42.7962 6.81329 42.7962 6.81312 42.7962 6.81294C42.7962 6.81277 42.7962 6.8126 42.7962 6.81243C42.7962 6.81225 42.7962 6.81208 42.7962 6.81191C42.7962 6.81174 42.7962 6.81157 42.7962 6.81139C42.7962 6.81122 42.7962 6.81105 42.7962 6.81088C42.7962 6.81071 42.7962 6.81054 42.7962 6.81036C42.7962 6.81019 42.7962 6.81002 42.7962 6.80985C42.7962 6.80968 42.7962 6.80951 42.7962 6.80933C42.7962 6.80916 42.7962 6.80899 42.7962 6.80882C42.7962 6.80865 42.7962 6.80848 42.7962 6.80831C42.7962 6.80814 42.7962 6.80797 42.7962 6.80779C42.7962 6.80762 42.7962 6.80745 42.7962 6.80728C42.7962 6.80711 42.7962 6.80694 42.7962 6.80677C42.7962 6.8066 42.7962 6.80643 42.7962 6.80626C42.7962 6.80609 42.7962 6.80592 42.7962 6.80575C42.7962 6.80558 42.7962 6.80541 42.7962 6.80523C42.7962 6.80506 42.7962 6.80489 42.7962 6.80472C42.7962 6.80455 42.7962 6.80438 42.7962 6.80421C42.7962 6.80404 42.7962 6.80387 42.7962 6.8037C42.7962 6.80353 42.7962 6.80336 42.7962 6.80319C42.7962 6.80303 42.7962 6.80286 42.7962 6.80269C42.7962 6.80252 42.7962 6.80235 42.7962 6.80218C42.7962 6.80201 42.7962 6.80184 42.7962 6.80167C42.7962 6.8015 42.7962 6.80133 42.7962 6.80116C42.7962 6.80099 42.7962 6.80082 42.7962 6.80065C42.7962 6.80048 42.7962 6.80032 42.7962 6.80015C42.7962 6.79998 42.7962 6.79981 42.7962 6.79964C42.7962 6.79947 42.7962 6.7993 42.7962 6.79913C42.7962 6.79897 42.7962 6.7988 42.7962 6.79863C42.7962 6.79846 42.7962 6.79829 42.7962 6.79812C42.7962 6.79795 42.7962 6.79779 42.7962 6.79762C42.7962 6.79745 42.7962 6.79728 42.7962 6.79711C42.7962 6.79695 42.7962 6.79678 42.7962 6.79661C42.7962 6.79644 42.7962 6.79627 42.7962 6.79611C42.7962 6.79594 42.7962 6.79577 42.7962 6.7956C42.7962 6.79543 42.7962 6.79527 42.7962 6.7951C42.7962 6.79493 42.7962 6.79476 42.7962 6.7946C42.7962 6.79443 42.7962 6.79426 42.7962 6.7941C42.7962 6.79393 42.7962 6.79376 42.7962 6.79359C42.7962 6.79343 42.7962 6.79326 42.7962 6.79309C42.7962 6.79293 42.7962 6.79276 42.7962 6.79259C42.7962 6.79243 42.7962 6.79226 42.7962 6.79209C42.7962 6.79192 42.7962 6.79176 42.7962 6.79159C42.7962 6.79142 42.7962 6.79126 42.7962 6.79109C42.7962 6.79093 42.7962 6.79076 42.7962 6.79059C42.7962 6.79043 42.7962 6.79026 42.7962 6.79009C42.7962 6.78993 42.7962 6.78976 42.7962 6.7896C42.7962 6.78943 42.7962 6.78926 42.7962 6.7891C42.7962 6.78893 42.7962 6.78877 42.7962 6.7886C42.7962 6.78843 42.7962 6.78827 42.7962 6.7881C42.7962 6.78794 42.7962 6.78777 42.7962 6.78761C42.7962 6.78744 42.7962 6.78728 42.7962 6.78711C42.7962 6.78695 42.7962 6.78678 42.7962 6.78662C42.7962 6.78645 42.7962 6.78628 42.7962 6.78612C42.7962 6.78595 42.7962 6.78579 42.7962 6.78562C42.7962 6.78546 42.7962 6.78529 42.7962 6.78513C42.7962 6.78497 42.7962 6.7848 42.7962 6.78464C42.7962 6.78447 42.7962 6.78431 42.7962 6.78414C42.7962 6.78398 42.7962 6.78381 42.7962 6.78365C42.7962 6.78348 42.7962 6.78332 42.7962 6.78316C42.7962 6.78299 42.7962 6.78283 42.7962 6.78266C42.7962 6.7825 42.7962 6.78234 42.7962 6.78217C42.7962 6.78201 42.7962 6.78184 42.7962 6.78168C42.7962 6.78152 42.7962 6.78135 42.7962 6.78119C42.7962 6.78102 42.7962 6.78086 42.7962 6.7807C42.7962 6.78053 42.7962 6.78037 42.7962 6.78021C42.7962 6.78004 42.7962 6.77988 42.7962 6.77972C42.7962 6.77955 42.7962 6.77939 42.7962 6.77923C42.7962 6.77906 42.7962 6.7789 42.7962 6.77874C42.7962 6.77857 42.7962 6.77841 42.7962 6.77825C42.7962 6.77809 42.7962 6.77792 42.7962 6.77776C42.7962 6.7776 42.7962 6.77744 42.7962 6.77727C42.7962 6.77711 42.7962 6.77695 42.7962 6.77678C42.7962 6.77662 42.7962 6.77646 42.7962 6.7763C42.7962 6.77614 42.7962 6.77597 42.7962 6.77581C42.7962 6.77565 42.7962 6.77549 42.7962 6.77532C42.7962 6.77516 42.7962 6.775 42.7962 6.77484C42.7962 6.77468 42.7962 6.77452 42.7962 6.77435C42.7962 6.77419 42.7962 6.77403 42.7962 6.77387C42.7962 6.77371 42.7962 6.77355 42.7962 6.77338C42.7962 6.77322 42.7962 6.77306 42.7962 6.7729C42.7962 6.77274 42.7962 6.77258 42.7962 6.77242C42.7962 6.77225 42.7962 6.77209 42.7962 6.77193C42.7962 6.77177 42.7962 6.77161 42.7962 6.77145C42.7962 6.77129 42.7962 6.77113 42.7962 6.77097C42.7962 6.77081 42.7962 6.77064 42.7962 6.77048C42.7962 6.77032 42.7962 6.77016 42.7962 6.77C42.7962 6.76984 42.7962 6.76968 42.7962 6.76952C42.7962 6.76936 42.7962 6.7692 42.7962 6.76904C42.7962 6.76888 42.7962 6.76872 42.7962 6.76856C42.7962 6.7684 42.7962 6.76824 42.7962 6.76808C42.7962 6.76792 42.7962 6.76776 42.7962 6.7676C42.7962 6.76744 42.7962 6.76728 42.7962 6.76712C42.7962 6.76696 42.7962 6.7668 42.7962 6.76664C42.7962 6.76648 42.7962 6.76632 42.7962 6.76616C42.7962 6.766 42.7962 6.76584 42.7962 6.76568C42.7962 6.76552 42.7962 6.76537 42.7962 6.76521C42.7962 6.76505 42.7962 6.76489 42.7962 6.76473C42.7962 6.76457 42.7962 6.76441 42.7962 6.76425C42.7962 6.76409 42.7962 6.76393 42.7962 6.76378C42.7962 6.76362 42.7962 6.76346 42.7962 6.7633C42.7962 6.76314 42.7962 6.76298 42.7962 6.76282C42.7962 6.76267 42.7962 6.76251 42.7962 6.76235C42.7962 6.76219 42.7962 6.76203 42.7962 6.76187C42.7962 6.76172 42.7962 6.76156 42.7962 6.7614C42.7962 6.76124 42.7962 6.76108 42.7962 6.76093C42.7962 6.76077 42.7962 6.76061 42.7962 6.76045C42.7962 6.76029 42.7962 6.76014 42.7962 6.75998C42.7962 6.75982 42.7962 6.75966 42.7962 6.75951C42.7962 6.75935 42.7962 6.75919 42.7962 6.75903C42.7962 6.75888 42.7962 6.75872 42.7962 6.75856C42.7962 6.7584 42.7962 6.75825 42.7962 6.75809C42.7962 6.75793 42.7962 6.75778 42.7962 6.75762C42.7962 6.75746 42.7962 6.75731 42.7962 6.75715C42.7962 6.75699 42.7962 6.75683 42.7962 6.75668C42.7962 6.75652 42.7962 6.75636 42.7962 6.75621C42.7962 6.75605 42.7962 6.7559 42.7962 6.75574C42.7962 6.75558 42.7962 6.75543 42.7962 6.75527C42.7962 6.75511 42.7962 6.75496 42.7962 6.7548C42.7962 6.75465 42.7962 6.75449 42.7962 6.75433C42.7962 6.75418 42.7962 6.75402 42.7962 6.75387C42.7962 6.75371 42.7962 6.75355 42.7962 6.7534C42.7962 6.75324 42.7962 6.75309 42.7962 6.75293C42.7962 6.75278 42.7962 6.75262 42.7962 6.75246C42.7962 6.75231 42.7962 6.75215 42.7962 6.752C42.7962 6.75184 42.7962 6.75169 42.7962 6.75153C42.7962 6.75138 42.7962 6.75122 42.7962 6.75107C42.7962 6.75091 42.7962 6.75076 42.7962 6.7506C42.7962 6.75045 42.7962 6.75029 42.7962 6.75014C42.7962 6.74998 42.7962 6.74983 42.7962 6.74967C42.7962 6.74952 42.7962 6.74936 42.7962 6.74921C42.7962 6.74905 42.7962 6.7489 42.7962 6.74875C42.7962 6.74859 42.7962 6.74844 42.7962 6.74828C42.7962 6.74813 42.7962 6.74798 42.7962 6.74782C42.7962 6.74767 42.7962 6.74751 42.7962 6.74736C42.7962 6.7472 42.7962 6.74705 42.7962 6.7469C42.7962 6.74674 42.7962 6.74659 42.7962 6.74644C42.7962 6.74628 42.7962 6.74613 42.7962 6.74598C42.7962 6.74582 42.7962 6.74567 42.7962 6.74551C42.7962 6.74536 42.7962 6.74521 42.7962 6.74506C42.7962 6.7449 42.7962 6.74475 42.7962 6.7446C42.7962 6.74444 42.7962 6.74429 42.7962 6.74414C42.7962 6.74398 42.7962 6.74383 42.7962 6.74368C42.7962 6.74352 42.7962 6.74337 42.7962 6.74322C42.7962 6.74307 42.7962 6.74291 42.7962 6.74276C42.7962 6.74261 42.7962 6.74246 42.7962 6.7423C42.7962 6.74215 42.7962 6.742 42.7962 6.74185C42.7962 6.74169 42.7962 6.74154 42.7962 6.74139C42.7962 6.74124 42.7962 6.74109 42.7962 6.74093C42.7962 6.74078 42.7962 6.74063 42.7962 6.74048C42.7962 6.74033 42.7962 6.74017 42.7962 6.74002C42.7962 6.73987 42.7962 6.73972 42.7962 6.73957C42.7962 6.73942 42.7962 6.73926 42.7962 6.73911C42.7962 6.73896 42.7962 6.73881 42.7962 6.73866C42.7962 6.73851 42.7962 6.73836 42.7962 6.7382C42.7962 6.73805 42.7962 6.7379 42.7962 6.73775C42.7962 6.7376 42.7962 6.73745 42.7962 6.7373C42.7962 6.73715 42.7962 6.737 42.7962 6.73685C42.7962 6.7367 42.7962 6.73654 42.7962 6.73639C42.7962 6.73624 42.7962 6.73609 42.7962 6.73594C42.7962 6.73579 42.7962 6.73564 42.7962 6.73549C42.7962 6.73534 42.7962 6.73519 42.7962 6.73504C42.7962 6.73489 42.7962 6.73474 42.7962 6.73459C42.7962 6.73444 42.7962 6.73429 42.7962 6.73414C42.7962 6.73399 42.7962 6.73384 42.7962 6.73369C42.7962 6.73354 42.7962 6.73339 42.7962 6.73324C42.7962 6.73309 42.7962 6.73294 42.7962 6.73279C42.7962 6.73264 42.7962 6.73249 42.7962 6.73234C42.7962 6.73219 42.7962 6.73204 42.7962 6.73189C42.7962 6.73175 42.7962 6.7316 42.7962 6.73145C42.7962 6.7313 42.7962 6.73115 42.7962 6.731C42.7962 6.73085 42.7962 6.7307 42.7962 6.73055C42.7962 6.7304 42.7962 6.73026 42.7962 6.73011C42.7962 6.72996 42.7962 6.72981 42.7962 6.72966C42.7962 6.72951 42.7962 6.72936 42.7962 6.72922C42.7962 6.72907 42.7962 6.72892 42.7962 6.72877C42.7962 6.72862 42.7962 6.72847 42.7962 6.72832C42.7962 6.72818 42.7962 6.72803 42.7962 6.72788C42.7962 6.72773 42.7962 6.72758 42.7962 6.72744C42.7962 6.72729 42.7962 6.72714 42.7962 6.72699C42.7962 6.72685 42.7962 6.7267 42.7962 6.72655C42.7962 6.7264 42.7962 6.72626 42.7962 6.72611C42.7962 6.72596 42.7962 6.72581 42.7962 6.72567C42.7962 6.72552 42.7962 6.72537 42.7962 6.72522C42.7962 6.72508 42.7962 6.72493 42.7962 6.72478C42.7962 6.72464 42.7962 6.72449 42.7962 6.72434C42.7962 6.72419 42.7962 6.72405 42.7962 6.7239C42.7962 6.72375 42.7962 6.72361 42.7962 6.72346C42.7962 6.72331 42.7962 6.72317 42.7962 6.72302C42.7962 6.72287 42.7962 6.72273 42.7962 6.72258C42.7962 6.72243 42.7962 6.72229 42.7962 6.72214C42.7962 6.722 42.7962 6.72185 42.7962 6.7217C42.7962 6.72156 42.7962 6.72141 42.7962 6.72127C42.7962 6.72112 42.7962 6.72097 42.7962 6.72083C42.7962 6.72068 42.7962 6.72054 42.7962 6.72039C42.7962 6.72024 42.7962 6.7201 42.7962 6.71995C42.7962 6.71981 42.7962 6.71966 42.7962 6.71952C42.7962 6.71937 42.7962 6.71923 42.7962 6.71908C42.7962 6.71894 42.7962 6.71879 42.7962 6.71865C42.7962 6.7185 42.7962 6.71836 42.7962 6.71821C42.7962 6.71807 42.7962 6.71792 42.7962 6.71778C42.7962 6.71763 42.7962 6.71749 42.7962 6.71734C42.7962 6.7172 42.7962 6.71705 42.7962 6.71691C42.7962 6.71676 42.7962 6.71662 42.7962 6.71647C42.7962 6.71633 42.7962 6.71618 42.7962 6.71604C42.7962 6.7159 42.7962 6.71575 42.7962 6.71561C42.7962 6.71546 42.7962 6.71532 42.7962 6.71517C42.7962 6.71503 42.7962 6.71489 42.7962 6.71474C42.7962 6.7146 42.7962 6.71445 42.7962 6.71431C42.7962 6.71417 42.7962 6.71402 42.7962 6.71388C42.7962 6.71374 42.7962 6.71359 42.7962 6.71345C42.7962 6.71331 42.7962 6.71316 42.7962 6.71302C42.7962 6.71288 42.7962 6.71273 42.7962 6.71259C42.7962 6.71245 42.7962 6.7123 42.7962 6.71216C42.7962 6.71202 42.7962 6.71187 42.7962 6.71173C42.7962 6.71159 42.7962 6.71144 42.7962 6.7113C42.7962 6.71116 42.7962 6.71102 42.7962 6.71087C42.7962 6.71073 42.7962 6.71059 42.7962 6.71045C42.7962 6.7103 42.7962 6.71016 42.7962 6.71002C42.7962 6.70988 42.7962 6.70973 42.7962 6.70959C42.7962 6.70945 42.7962 6.70931 42.7962 6.70916C42.7962 6.70902 42.7962 6.70888 42.7962 6.70874C42.7962 6.7086 42.7962 6.70845 42.7962 6.70831C42.7962 6.70817 42.7962 6.70803 42.7962 6.70789C42.7962 6.70775 42.7962 6.7076 42.7962 6.70746C42.7962 6.70732 42.7962 6.70718 42.7962 6.70704C42.7962 6.7069 42.7962 6.70675 42.7962 6.70661C42.7962 6.70647 42.7962 6.70633 42.7962 6.70619C42.7962 6.70605 42.7962 6.70591 42.7962 6.70577C42.7962 6.70563 42.7962 6.70548 42.7962 6.70534C42.7962 6.7052 42.7962 6.70506 42.7962 6.70492C42.7962 6.70478 42.7962 6.70464 42.7962 6.7045C42.7962 6.70436 42.7962 6.70422 42.7962 6.70408C42.7962 6.70394 42.7962 6.7038 42.7962 6.70366C42.7962 6.70352 42.7962 6.70338 42.7962 6.70324C42.7962 6.7031 42.7962 6.70296 42.7962 6.70282C42.7962 6.70267 42.7962 6.70253 42.7962 6.70239C42.7962 6.70226 42.7962 6.70212 42.7962 6.70197C42.7962 6.70184 42.7962 6.7017 42.7962 6.70156C42.7962 6.70142 42.7962 6.70128 42.7962 6.70114C42.7962 6.701 42.7962 6.70086 42.7962 6.70072C42.7962 6.70058 42.7962 6.70044 42.7962 6.7003C42.7962 6.70016 42.7962 6.70002 42.7962 6.69988C42.7962 6.69974 42.7962 6.6996 42.7962 6.69947C42.7962 6.69933 42.7962 6.69919 42.7962 6.69905C42.7962 6.69891 42.7962 6.69877 42.7962 6.69863C42.7962 6.69849 42.7962 6.69836 42.7962 6.69822C42.7962 6.69808 42.7962 6.69794 42.7962 6.6978C42.7962 6.69766 42.7962 6.69753 42.7962 6.69739C42.7962 6.69725 42.7962 6.69711 42.7962 6.69697C42.7962 6.69683 42.7962 6.6967 42.7962 6.69656C42.7962 6.69642 42.7962 6.69628 42.7962 6.69614C42.7962 6.69601 42.7962 6.69587 42.7962 6.69573C42.7962 6.69559 42.7962 6.69545 42.7962 6.69532C42.7962 6.69518 42.7962 6.69504 42.7962 6.6949C42.7962 6.69477 42.7962 6.69463 42.7962 6.69449C42.7962 6.69436 42.7962 6.69422 42.7962 6.69408C42.7962 6.69394 42.7962 6.69381 42.7962 6.69367C42.7962 6.69353 42.7962 6.6934 42.7962 6.69326C42.7962 6.69312 42.7962 6.69298 42.7962 6.69285C42.7962 6.69271 42.7962 6.69257 42.7962 6.69244C42.7962 6.6923 42.7962 6.69216 42.7962 6.69203C42.7962 6.69189 42.7962 6.69176 42.7962 6.69162C42.7962 6.69148 42.7962 6.69135 42.7962 6.69121C42.7962 6.69107 42.7962 6.69094 42.7962 6.6908C42.7962 6.69067 42.7962 6.69053 42.7962 6.69039C42.7962 6.69026 42.7962 6.69012 42.7962 6.68999C42.7962 6.68985 42.7962 6.68971 42.7962 6.68958C42.7962 6.68944 42.7962 6.68931 42.7962 6.68917C42.7962 6.68904 42.7962 6.6889 42.7962 6.68877C42.7962 6.68863 42.7962 6.68849 42.7962 6.68836C42.7962 6.68822 42.7962 6.68809 42.7962 6.68795C42.7962 6.68782 42.7962 6.68768 42.7962 6.68755C42.7962 6.68741 42.7962 6.68728 42.7962 6.68714C42.7962 6.68701 42.7962 6.68687 42.7962 6.68674C42.7962 6.6866 42.7962 6.68647 42.7962 6.68634C42.7962 6.6862 42.7962 6.68607 42.7962 6.68593C42.7962 6.6858 42.7962 6.68566 42.7962 6.68553C42.7962 6.68539 42.7962 6.68526 42.7962 6.68513C42.7962 6.68499 42.7962 6.68486 42.7962 6.68472C42.7962 6.68459 42.7962 6.68446 42.7962 6.68432C42.7962 6.68419 42.7962 6.68405 42.7962 6.68392C42.7962 6.68379 42.7962 6.68365 42.7962 6.68352C42.7962 6.68339 42.7962 6.68325 42.7962 6.68312C42.7962 6.68299 42.7962 6.68285 42.7962 6.68272C42.7962 6.68258 42.7962 6.68245 42.7962 6.68232C42.7962 6.68219 42.7962 6.68205 42.7962 6.68192C42.7962 6.68179 42.7962 6.68165 42.7962 6.68152C42.7962 6.68139 42.7962 6.68125 42.7962 6.68112C42.7962 6.68099 42.7962 6.68086 42.7962 6.68072C42.7962 6.68059 42.7962 6.68046 42.7962 6.68033C42.7962 6.68019 42.7962 6.68006 42.7962 6.67993C42.7962 6.6798 42.7962 6.67966 42.7962 6.67953C42.7962 6.6794 42.7962 6.67927 42.7962 6.67913C42.7962 6.679 42.7962 6.67887 42.7962 6.67874C42.7962 6.67861 42.7962 6.67847 42.7962 6.67834C42.7962 6.67821 42.7962 6.67808 42.7962 6.67795C42.7962 6.67782 42.7962 6.67768 42.7962 6.67755C42.7962 6.67742 42.7962 6.67729 42.7962 6.67716C42.7962 6.67703 42.7962 6.6769 42.7962 6.67676C42.7962 6.67663 42.7962 6.6765 42.7962 6.67637C42.7962 6.67624 42.7962 6.67611 42.7962 6.67598C42.7962 6.67585 42.7962 6.67572 42.7962 6.67558C42.7962 6.67545 42.7962 6.67532 42.7962 6.67519C42.7962 6.67506 42.7962 6.67493 42.7962 6.6748C42.7962 6.67467 42.7962 6.67454 42.7962 6.67441C42.7962 6.67428 42.7962 6.67415 42.7962 6.67402C42.7962 6.67389 42.7962 6.67376 42.7962 6.67363C42.7962 6.6735 42.7962 6.67337 42.7962 6.67324C42.7962 6.67311 42.7962 6.67298 42.7962 6.67285C42.7962 6.67272 42.7962 6.67259 42.7962 6.67246C42.7962 6.67233 42.7962 6.6722 42.7962 6.67207C42.7962 6.67194 42.7962 6.67181 42.7962 6.67168C42.7962 6.67155 42.7962 6.67142 42.7962 6.67129C42.7962 6.67116 42.7962 6.67103 42.7962 6.6709C42.7962 6.67077 42.7962 6.67064 42.7962 6.67052C42.7962 6.67039 42.7962 6.67026 42.7962 6.67013C42.7962 6.67 42.7962 6.66987 42.7962 6.66974C42.7962 6.66961 42.7962 6.66948 42.7962 6.66936C42.7962 6.66923 42.7962 6.6691 42.7962 6.66897C42.7962 6.66884 42.7962 6.66871 42.7962 6.66858C42.7962 6.66846 42.7962 6.66833 42.7962 6.6682C42.7962 6.66807 42.7962 6.66794 42.7962 6.66781C42.7962 6.66769 42.7962 6.66756 42.7962 6.66743C42.7962 6.6673 42.7962 6.66717 42.7962 6.66705C42.7962 6.66692 42.7962 6.66679 42.7962 6.66666C42.7962 6.66654 42.7962 6.66641 42.7962 6.66628C42.7962 6.66615 42.7962 6.66603 42.7962 6.6659C42.7962 6.66577 42.7962 6.66564 42.7962 6.66551C42.7962 6.66539 42.7962 6.66526 42.7962 6.66513C42.7962 6.66501 42.7962 6.66488 42.7962 6.66475C42.7962 6.66463 42.7962 6.6645 42.7962 6.66437C42.7962 6.66424 42.7962 6.66412 42.7962 6.66399C42.7962 6.66386 42.7962 6.66374 42.7962 6.66361C42.7962 6.66348 42.7962 6.66336 42.7962 6.66323C42.7962 6.66311 42.7962 6.66298 42.7962 6.66285C42.7962 6.66273 42.7962 6.6626 42.7962 6.66247C42.7962 6.66235 42.7962 6.66222 42.7962 6.6621C42.7962 6.66197 42.7962 6.66184 42.7962 6.66172C42.7962 6.66159 42.7962 6.66146 42.7962 6.66134C42.7962 6.66121 42.7962 6.66109 42.7962 6.66096C42.7962 6.66084 42.7962 6.66071 42.7962 6.66059C42.7962 6.66046 42.7962 6.66033 42.7962 6.66021C42.7962 6.66008 42.7962 6.65996 42.7962 6.65983C42.7962 6.65971 42.7962 6.65958 42.7962 6.65946C42.7962 6.65933 42.7962 6.65921 42.7962 6.65908C42.7962 6.65896 42.7962 6.65883 42.7962 6.65871C42.7962 6.65858 42.7962 6.65846 42.7962 6.65833C42.7962 6.65821 42.7962 6.65808 42.7962 6.65796C42.7962 6.65784 42.7962 6.65771 42.7962 6.65759C42.7962 6.65746 42.7962 6.65734 42.7962 6.65721C42.7962 6.65709 42.7962 6.65696 42.7962 6.65684C42.7962 6.65672 42.7962 6.65659 42.7962 6.65647C42.7962 6.65634 42.7962 6.65622 42.7962 6.6561C42.7962 6.65597 42.7962 6.65585 42.7962 6.65572C42.7962 6.6556 42.7962 6.65548 42.7962 6.65535C42.7962 6.65523 42.7962 6.65511 42.7962 6.65498C42.7962 6.65486 42.7962 6.65474 42.7962 6.65461C42.7962 6.65449 42.7962 6.65437 42.7962 6.65424C42.7962 6.65412 42.7962 6.654 42.7962 6.65387C42.7962 6.65375 42.7962 6.65363 42.7962 6.65351C42.7962 6.65338 42.7962 6.65326 42.7962 6.65314C42.7962 6.65301 42.7962 6.65289 42.7962 6.65277C42.7962 6.65265 42.7962 6.65252 42.7962 6.6524C42.7962 6.65228 42.7962 6.65216 42.7962 6.65203C42.7962 6.65191 42.7962 6.65179 42.7962 6.65167C42.7962 6.65154 42.7962 6.65142 42.7962 6.6513C42.7962 6.65118 42.7962 6.65106 42.7962 6.65093C42.7962 6.65081 42.7962 6.65069 42.7962 6.65057C42.7962 6.65045 42.7962 6.65032 42.7962 6.6502C42.7962 6.65008 42.7962 6.64996 42.7962 6.64984C42.7962 6.64972 42.7962 6.6496 42.7962 6.64947C42.7962 6.64935 42.7962 6.64923 42.7962 6.64911C42.7962 6.64899 42.7962 6.64887 42.7962 6.64875C42.7962 6.64863 42.7962 6.6485 42.7962 6.64838C42.7962 6.64826 42.7962 6.64814 42.7962 6.64802C42.7962 6.6479 42.7962 6.64778 42.7962 6.64766C42.7962 6.64754 42.7962 6.64742 42.7962 6.6473C42.7962 6.64718 42.7962 6.64705 42.7962 6.64693C42.7962 6.64681 42.7962 6.64669 42.7962 6.64657C42.7962 6.64645 42.7962 6.64633 42.7962 6.64621C42.7962 6.64609 42.7962 6.64597 42.7962 6.64585C42.7962 6.64573 42.7962 6.64561 42.7962 6.64549C42.7962 6.64537 42.7962 6.64525 42.7962 6.64513C42.7962 6.64501 42.7962 6.64489 42.7962 6.64477C42.7962 6.64465 42.7962 6.64454 42.7962 6.64441C42.7962 6.6443 42.7962 6.64418 42.7962 6.64406C42.7962 6.64394 42.7962 6.64382 42.7962 6.6437C42.7962 6.64358 42.7962 6.64346 42.7962 6.64334C42.7962 6.64322 42.7962 6.6431 42.7962 6.64299C42.7962 6.64287 42.7962 6.64275 42.7962 6.64263C42.7962 6.64251 42.7962 6.64239 42.7962 6.64227C42.7962 6.64215 42.7962 6.64203 42.7962 6.64192C42.7962 6.6418 42.7962 6.64168 42.7962 6.64156C42.7962 6.64144 42.7962 6.64132 42.7962 6.64121C42.7962 6.64109 42.7962 6.64097 42.7962 6.64085C42.7962 6.64073 42.7962 6.64062 42.7962 6.6405C42.7962 6.64038 42.7962 6.64026 42.7962 6.64014C42.7962 6.64003 42.7962 6.63991 42.7962 6.63979C42.7962 6.63967 42.7962 6.63955 42.7962 6.63944C42.7962 6.63932 42.7962 6.6392 42.7962 6.63908C42.7962 6.63897 42.7962 6.63885 42.7962 6.63873C42.7962 6.63862 42.7962 6.6385 42.7962 6.63838C42.7962 6.63826 42.7962 6.63815 42.7962 6.63803C42.7962 6.63791 42.7962 6.6378 42.7962 6.63768C42.7962 6.63756 42.7962 6.63745 42.7962 6.63733C42.7962 6.63721 42.7962 6.6371 42.7962 6.63698C42.7962 6.63686 42.7962 6.63675 42.7962 6.63663C42.7962 6.63651 42.7962 6.6364 42.7962 6.63628C42.7962 6.63616 42.7962 6.63605 42.7962 6.63593C42.7962 6.63582 42.7962 6.6357 42.7962 6.63558C42.7962 6.63547 42.7962 6.63535 42.7962 6.63524C42.7962 6.63512 42.7962 6.635 42.7962 6.63489C42.7962 6.63477 42.7962 6.63466 42.7962 6.63454C42.7962 6.63443 42.7962 6.63431 42.7962 6.63419C42.7962 6.63408 42.7962 6.63396 42.7962 6.63385C42.7962 6.63373 42.7962 6.63362 42.7962 6.6335C42.7962 6.63339 42.7962 6.63327 42.7962 6.63316C42.7962 6.63304 42.7962 6.63293 42.7962 6.63281C42.7962 6.6327 42.7962 6.63258 42.7962 6.63247C42.7962 6.63235 42.7962 6.63224 42.7962 6.63212C42.7962 6.63201 42.7962 6.63189 42.7962 6.63178C42.7962 6.63166 42.7962 6.63155 42.7962 6.63144C42.7962 6.63132 42.7962 6.63121 42.7962 6.63109C42.7962 6.63098 42.7962 6.63086 42.7962 6.63075C42.7962 6.63064 42.7962 6.63052 42.7962 6.63041C42.7962 6.63029 42.7962 6.63018 42.7962 6.63007C42.7962 6.62995 42.7962 6.62984 42.7962 6.62972C42.7962 6.62961 42.7962 6.6295 42.7962 6.62938C42.7962 6.62927 42.7962 6.62916 42.7962 6.62904C42.7962 6.62893 42.7962 6.62882 42.7962 6.6287C42.7962 6.62859 42.7962 6.62848 42.7962 6.62836C42.7962 6.62825 42.7962 6.62814 42.7962 6.62802C42.7962 6.62791 42.7962 6.6278 42.7962 6.62769C42.7962 6.62757 42.7962 6.62746 42.7962 6.62735C42.7962 6.62723 42.7962 6.62712 42.7962 6.62701C42.7962 6.6269 42.7962 6.62678 42.7962 6.62667C42.7962 6.62656 42.7962 6.62645 42.7962 6.62633C42.7962 6.62622 42.7962 6.62611 42.7962 6.626C42.7962 6.62589 42.7962 6.62577 42.7962 6.62566C42.7962 6.62555 42.7962 6.62544 42.7962 6.62533C42.7962 6.62521 42.7962 6.6251 42.7962 6.62499C42.7962 6.62488 42.7962 6.62477 42.7962 6.62465C42.7962 6.62454 42.7962 6.62443 42.7962 6.62432C42.7962 6.62421 42.7962 6.6241 42.7962 6.62399C42.7962 6.62387 42.7962 6.62376 42.7962 6.62365C42.7962 6.62354 42.7962 6.62343 42.7962 6.62332C42.7962 6.62321 42.7962 6.6231 42.7962 6.62298C42.7962 6.62287 42.7962 6.62276 42.7962 6.62265C42.7962 6.62254 42.7962 6.62243 42.7962 6.62232C42.7962 6.62221 42.7962 6.6221 42.7962 6.62199C42.7962 6.62188 42.7962 6.62177 42.7962 6.62166C42.7962 6.62155 42.7962 6.62144 42.7962 6.62133C42.7962 6.62121 42.7962 6.62111 42.7962 6.62099C42.7962 6.62088 42.7962 6.62077 42.7962 6.62066C42.7962 6.62055 42.7962 6.62044 42.7962 6.62033C42.7962 6.62022 42.7962 6.62012 42.7962 6.62001C42.7962 6.6199 42.7962 6.61979 42.7962 6.61968C42.7962 6.61957 42.7962 6.61946 42.7962 6.61935C42.7962 6.61924 42.7962 6.61913 42.7962 6.61902C42.7962 6.61891 42.7962 6.6188 42.7962 6.61869C42.7962 6.61858 42.7962 6.61847 42.7962 6.61836C42.7962 6.61826 42.7962 6.61815 42.7962 6.61804C42.7962 6.61793 42.7962 6.61782 42.7962 6.61771C42.7962 6.6176 42.7962 6.61749 42.7962 6.61738C42.7962 6.61728 42.7962 6.61717 42.7962 6.61706C42.7962 6.61695 42.7962 6.61684 42.7962 6.61673C42.7962 6.61663 42.7962 6.61652 42.7962 6.61641C42.7962 6.6163 42.7962 6.61619 42.7962 6.61609C42.7962 6.61598 42.7962 6.61587 42.7962 6.61576C42.7962 6.61565 42.7962 6.61555 42.7962 6.61544C42.7962 6.61533 42.7962 6.61522 42.7962 6.61511C42.7962 6.61501 42.7962 6.6149 42.7962 6.61479C42.7962 6.61468 42.7962 6.61458 42.7962 6.61447C42.7962 6.61436 42.7962 6.61425 42.7962 6.61415C42.7962 6.61404 42.7962 6.61393 42.7962 6.61382C42.7962 6.61372 42.7962 6.61361 42.7962 6.6135C42.7962 6.6134 42.7962 6.61329 42.7962 6.61318C42.7962 6.61308 42.7962 6.61297 42.7962 6.61286C42.7962 6.61276 42.7962 6.61265 42.7962 6.61254C42.7962 6.61244 42.7962 6.61233 42.7962 6.61222C42.7962 6.61212 42.7962 6.61201 42.7962 6.6119C42.7962 6.6118 42.7962 6.61169 42.7962 6.61159C42.7962 6.61148 42.7962 6.61137 42.7962 6.61127C42.7962 6.61116 42.7962 6.61106 42.7962 6.61095C42.7962 6.61084 42.7962 6.61074 42.7962 6.61063C42.7962 6.61053 42.7962 6.61042 42.7962 6.61032C42.7962 6.61021 42.7962 6.6101 42.7962 6.61H40.7962C40.7962 6.6101 40.7962 6.61021 40.7962 6.61032C40.7962 6.61042 40.7962 6.61053 40.7962 6.61063C40.7962 6.61074 40.7962 6.61084 40.7962 6.61095C40.7962 6.61106 40.7962 6.61116 40.7962 6.61127C40.7962 6.61137 40.7962 6.61148 40.7962 6.61159C40.7962 6.61169 40.7962 6.6118 40.7962 6.6119C40.7962 6.61201 40.7962 6.61212 40.7962 6.61222C40.7962 6.61233 40.7962 6.61244 40.7962 6.61254C40.7962 6.61265 40.7962 6.61276 40.7962 6.61286C40.7962 6.61297 40.7962 6.61308 40.7962 6.61318C40.7962 6.61329 40.7962 6.6134 40.7962 6.6135C40.7962 6.61361 40.7962 6.61372 40.7962 6.61382C40.7962 6.61393 40.7962 6.61404 40.7962 6.61415C40.7962 6.61425 40.7962 6.61436 40.7962 6.61447C40.7962 6.61458 40.7962 6.61468 40.7962 6.61479C40.7962 6.6149 40.7962 6.61501 40.7962 6.61511C40.7962 6.61522 40.7962 6.61533 40.7962 6.61544C40.7962 6.61555 40.7962 6.61565 40.7962 6.61576C40.7962 6.61587 40.7962 6.61598 40.7962 6.61609C40.7962 6.61619 40.7962 6.6163 40.7962 6.61641C40.7962 6.61652 40.7962 6.61663 40.7962 6.61673C40.7962 6.61684 40.7962 6.61695 40.7962 6.61706C40.7962 6.61717 40.7962 6.61728 40.7962 6.61738C40.7962 6.61749 40.7962 6.6176 40.7962 6.61771C40.7962 6.61782 40.7962 6.61793 40.7962 6.61804C40.7962 6.61815 40.7962 6.61826 40.7962 6.61836C40.7962 6.61847 40.7962 6.61858 40.7962 6.61869C40.7962 6.6188 40.7962 6.61891 40.7962 6.61902C40.7962 6.61913 40.7962 6.61924 40.7962 6.61935C40.7962 6.61946 40.7962 6.61957 40.7962 6.61968C40.7962 6.61979 40.7962 6.6199 40.7962 6.62001C40.7962 6.62012 40.7962 6.62022 40.7962 6.62033C40.7962 6.62044 40.7962 6.62055 40.7962 6.62066C40.7962 6.62077 40.7962 6.62088 40.7962 6.62099C40.7962 6.62111 40.7962 6.62121 40.7962 6.62133C40.7962 6.62144 40.7962 6.62155 40.7962 6.62166C40.7962 6.62177 40.7962 6.62188 40.7962 6.62199C40.7962 6.6221 40.7962 6.62221 40.7962 6.62232C40.7962 6.62243 40.7962 6.62254 40.7962 6.62265C40.7962 6.62276 40.7962 6.62287 40.7962 6.62298C40.7962 6.6231 40.7962 6.62321 40.7962 6.62332C40.7962 6.62343 40.7962 6.62354 40.7962 6.62365C40.7962 6.62376 40.7962 6.62387 40.7962 6.62399C40.7962 6.6241 40.7962 6.62421 40.7962 6.62432C40.7962 6.62443 40.7962 6.62454 40.7962 6.62465C40.7962 6.62477 40.7962 6.62488 40.7962 6.62499C40.7962 6.6251 40.7962 6.62521 40.7962 6.62533C40.7962 6.62544 40.7962 6.62555 40.7962 6.62566C40.7962 6.62577 40.7962 6.62589 40.7962 6.626C40.7962 6.62611 40.7962 6.62622 40.7962 6.62633C40.7962 6.62645 40.7962 6.62656 40.7962 6.62667C40.7962 6.62678 40.7962 6.6269 40.7962 6.62701C40.7962 6.62712 40.7962 6.62723 40.7962 6.62735C40.7962 6.62746 40.7962 6.62757 40.7962 6.62769C40.7962 6.6278 40.7962 6.62791 40.7962 6.62802C40.7962 6.62814 40.7962 6.62825 40.7962 6.62836C40.7962 6.62848 40.7962 6.62859 40.7962 6.6287C40.7962 6.62882 40.7962 6.62893 40.7962 6.62904C40.7962 6.62916 40.7962 6.62927 40.7962 6.62938C40.7962 6.6295 40.7962 6.62961 40.7962 6.62972C40.7962 6.62984 40.7962 6.62995 40.7962 6.63007C40.7962 6.63018 40.7962 6.63029 40.7962 6.63041C40.7962 6.63052 40.7962 6.63064 40.7962 6.63075C40.7962 6.63086 40.7962 6.63098 40.7962 6.63109C40.7962 6.63121 40.7962 6.63132 40.7962 6.63144C40.7962 6.63155 40.7962 6.63166 40.7962 6.63178C40.7962 6.63189 40.7962 6.63201 40.7962 6.63212C40.7962 6.63224 40.7962 6.63235 40.7962 6.63247C40.7962 6.63258 40.7962 6.6327 40.7962 6.63281C40.7962 6.63293 40.7962 6.63304 40.7962 6.63316C40.7962 6.63327 40.7962 6.63339 40.7962 6.6335C40.7962 6.63362 40.7962 6.63373 40.7962 6.63385C40.7962 6.63396 40.7962 6.63408 40.7962 6.63419C40.7962 6.63431 40.7962 6.63443 40.7962 6.63454C40.7962 6.63466 40.7962 6.63477 40.7962 6.63489C40.7962 6.635 40.7962 6.63512 40.7962 6.63524C40.7962 6.63535 40.7962 6.63547 40.7962 6.63558C40.7962 6.6357 40.7962 6.63582 40.7962 6.63593C40.7962 6.63605 40.7962 6.63616 40.7962 6.63628C40.7962 6.6364 40.7962 6.63651 40.7962 6.63663C40.7962 6.63675 40.7962 6.63686 40.7962 6.63698C40.7962 6.6371 40.7962 6.63721 40.7962 6.63733C40.7962 6.63745 40.7962 6.63756 40.7962 6.63768C40.7962 6.6378 40.7962 6.63791 40.7962 6.63803C40.7962 6.63815 40.7962 6.63826 40.7962 6.63838C40.7962 6.6385 40.7962 6.63862 40.7962 6.63873C40.7962 6.63885 40.7962 6.63897 40.7962 6.63908C40.7962 6.6392 40.7962 6.63932 40.7962 6.63944C40.7962 6.63955 40.7962 6.63967 40.7962 6.63979C40.7962 6.63991 40.7962 6.64003 40.7962 6.64014C40.7962 6.64026 40.7962 6.64038 40.7962 6.6405C40.7962 6.64062 40.7962 6.64073 40.7962 6.64085C40.7962 6.64097 40.7962 6.64109 40.7962 6.64121C40.7962 6.64132 40.7962 6.64144 40.7962 6.64156C40.7962 6.64168 40.7962 6.6418 40.7962 6.64192C40.7962 6.64203 40.7962 6.64215 40.7962 6.64227C40.7962 6.64239 40.7962 6.64251 40.7962 6.64263C40.7962 6.64275 40.7962 6.64287 40.7962 6.64299C40.7962 6.6431 40.7962 6.64322 40.7962 6.64334C40.7962 6.64346 40.7962 6.64358 40.7962 6.6437C40.7962 6.64382 40.7962 6.64394 40.7962 6.64406C40.7962 6.64418 40.7962 6.6443 40.7962 6.64441C40.7962 6.64454 40.7962 6.64465 40.7962 6.64477C40.7962 6.64489 40.7962 6.64501 40.7962 6.64513C40.7962 6.64525 40.7962 6.64537 40.7962 6.64549C40.7962 6.64561 40.7962 6.64573 40.7962 6.64585C40.7962 6.64597 40.7962 6.64609 40.7962 6.64621C40.7962 6.64633 40.7962 6.64645 40.7962 6.64657C40.7962 6.64669 40.7962 6.64681 40.7962 6.64693C40.7962 6.64705 40.7962 6.64718 40.7962 6.6473C40.7962 6.64742 40.7962 6.64754 40.7962 6.64766C40.7962 6.64778 40.7962 6.6479 40.7962 6.64802C40.7962 6.64814 40.7962 6.64826 40.7962 6.64838C40.7962 6.6485 40.7962 6.64863 40.7962 6.64875C40.7962 6.64887 40.7962 6.64899 40.7962 6.64911C40.7962 6.64923 40.7962 6.64935 40.7962 6.64947C40.7962 6.6496 40.7962 6.64972 40.7962 6.64984C40.7962 6.64996 40.7962 6.65008 40.7962 6.6502C40.7962 6.65032 40.7962 6.65045 40.7962 6.65057C40.7962 6.65069 40.7962 6.65081 40.7962 6.65093C40.7962 6.65106 40.7962 6.65118 40.7962 6.6513C40.7962 6.65142 40.7962 6.65154 40.7962 6.65167C40.7962 6.65179 40.7962 6.65191 40.7962 6.65203C40.7962 6.65216 40.7962 6.65228 40.7962 6.6524C40.7962 6.65252 40.7962 6.65265 40.7962 6.65277C40.7962 6.65289 40.7962 6.65301 40.7962 6.65314C40.7962 6.65326 40.7962 6.65338 40.7962 6.65351C40.7962 6.65363 40.7962 6.65375 40.7962 6.65387C40.7962 6.654 40.7962 6.65412 40.7962 6.65424C40.7962 6.65437 40.7962 6.65449 40.7962 6.65461C40.7962 6.65474 40.7962 6.65486 40.7962 6.65498C40.7962 6.65511 40.7962 6.65523 40.7962 6.65535C40.7962 6.65548 40.7962 6.6556 40.7962 6.65572C40.7962 6.65585 40.7962 6.65597 40.7962 6.6561C40.7962 6.65622 40.7962 6.65634 40.7962 6.65647C40.7962 6.65659 40.7962 6.65672 40.7962 6.65684C40.7962 6.65696 40.7962 6.65709 40.7962 6.65721C40.7962 6.65734 40.7962 6.65746 40.7962 6.65759C40.7962 6.65771 40.7962 6.65784 40.7962 6.65796C40.7962 6.65808 40.7962 6.65821 40.7962 6.65833C40.7962 6.65846 40.7962 6.65858 40.7962 6.65871C40.7962 6.65883 40.7962 6.65896 40.7962 6.65908C40.7962 6.65921 40.7962 6.65933 40.7962 6.65946C40.7962 6.65958 40.7962 6.65971 40.7962 6.65983C40.7962 6.65996 40.7962 6.66008 40.7962 6.66021C40.7962 6.66033 40.7962 6.66046 40.7962 6.66059C40.7962 6.66071 40.7962 6.66084 40.7962 6.66096C40.7962 6.66109 40.7962 6.66121 40.7962 6.66134C40.7962 6.66146 40.7962 6.66159 40.7962 6.66172C40.7962 6.66184 40.7962 6.66197 40.7962 6.6621C40.7962 6.66222 40.7962 6.66235 40.7962 6.66247C40.7962 6.6626 40.7962 6.66273 40.7962 6.66285C40.7962 6.66298 40.7962 6.66311 40.7962 6.66323C40.7962 6.66336 40.7962 6.66348 40.7962 6.66361C40.7962 6.66374 40.7962 6.66386 40.7962 6.66399C40.7962 6.66412 40.7962 6.66424 40.7962 6.66437C40.7962 6.6645 40.7962 6.66463 40.7962 6.66475C40.7962 6.66488 40.7962 6.66501 40.7962 6.66513C40.7962 6.66526 40.7962 6.66539 40.7962 6.66551C40.7962 6.66564 40.7962 6.66577 40.7962 6.6659C40.7962 6.66603 40.7962 6.66615 40.7962 6.66628C40.7962 6.66641 40.7962 6.66654 40.7962 6.66666C40.7962 6.66679 40.7962 6.66692 40.7962 6.66705C40.7962 6.66717 40.7962 6.6673 40.7962 6.66743C40.7962 6.66756 40.7962 6.66769 40.7962 6.66781C40.7962 6.66794 40.7962 6.66807 40.7962 6.6682C40.7962 6.66833 40.7962 6.66846 40.7962 6.66858C40.7962 6.66871 40.7962 6.66884 40.7962 6.66897C40.7962 6.6691 40.7962 6.66923 40.7962 6.66936C40.7962 6.66948 40.7962 6.66961 40.7962 6.66974C40.7962 6.66987 40.7962 6.67 40.7962 6.67013C40.7962 6.67026 40.7962 6.67039 40.7962 6.67052C40.7962 6.67064 40.7962 6.67077 40.7962 6.6709C40.7962 6.67103 40.7962 6.67116 40.7962 6.67129C40.7962 6.67142 40.7962 6.67155 40.7962 6.67168C40.7962 6.67181 40.7962 6.67194 40.7962 6.67207C40.7962 6.6722 40.7962 6.67233 40.7962 6.67246C40.7962 6.67259 40.7962 6.67272 40.7962 6.67285C40.7962 6.67298 40.7962 6.67311 40.7962 6.67324C40.7962 6.67337 40.7962 6.6735 40.7962 6.67363C40.7962 6.67376 40.7962 6.67389 40.7962 6.67402C40.7962 6.67415 40.7962 6.67428 40.7962 6.67441C40.7962 6.67454 40.7962 6.67467 40.7962 6.6748C40.7962 6.67493 40.7962 6.67506 40.7962 6.67519C40.7962 6.67532 40.7962 6.67545 40.7962 6.67558C40.7962 6.67572 40.7962 6.67585 40.7962 6.67598C40.7962 6.67611 40.7962 6.67624 40.7962 6.67637C40.7962 6.6765 40.7962 6.67663 40.7962 6.67676C40.7962 6.6769 40.7962 6.67703 40.7962 6.67716C40.7962 6.67729 40.7962 6.67742 40.7962 6.67755C40.7962 6.67768 40.7962 6.67782 40.7962 6.67795C40.7962 6.67808 40.7962 6.67821 40.7962 6.67834C40.7962 6.67847 40.7962 6.67861 40.7962 6.67874C40.7962 6.67887 40.7962 6.679 40.7962 6.67913C40.7962 6.67927 40.7962 6.6794 40.7962 6.67953C40.7962 6.67966 40.7962 6.6798 40.7962 6.67993C40.7962 6.68006 40.7962 6.68019 40.7962 6.68033C40.7962 6.68046 40.7962 6.68059 40.7962 6.68072C40.7962 6.68086 40.7962 6.68099 40.7962 6.68112C40.7962 6.68125 40.7962 6.68139 40.7962 6.68152C40.7962 6.68165 40.7962 6.68179 40.7962 6.68192C40.7962 6.68205 40.7962 6.68219 40.7962 6.68232C40.7962 6.68245 40.7962 6.68258 40.7962 6.68272C40.7962 6.68285 40.7962 6.68299 40.7962 6.68312C40.7962 6.68325 40.7962 6.68339 40.7962 6.68352C40.7962 6.68365 40.7962 6.68379 40.7962 6.68392C40.7962 6.68405 40.7962 6.68419 40.7962 6.68432C40.7962 6.68446 40.7962 6.68459 40.7962 6.68472C40.7962 6.68486 40.7962 6.68499 40.7962 6.68513C40.7962 6.68526 40.7962 6.68539 40.7962 6.68553C40.7962 6.68566 40.7962 6.6858 40.7962 6.68593C40.7962 6.68607 40.7962 6.6862 40.7962 6.68634C40.7962 6.68647 40.7962 6.6866 40.7962 6.68674C40.7962 6.68687 40.7962 6.68701 40.7962 6.68714C40.7962 6.68728 40.7962 6.68741 40.7962 6.68755C40.7962 6.68768 40.7962 6.68782 40.7962 6.68795C40.7962 6.68809 40.7962 6.68822 40.7962 6.68836C40.7962 6.68849 40.7962 6.68863 40.7962 6.68877C40.7962 6.6889 40.7962 6.68904 40.7962 6.68917C40.7962 6.68931 40.7962 6.68944 40.7962 6.68958C40.7962 6.68971 40.7962 6.68985 40.7962 6.68999C40.7962 6.69012 40.7962 6.69026 40.7962 6.69039C40.7962 6.69053 40.7962 6.69067 40.7962 6.6908C40.7962 6.69094 40.7962 6.69107 40.7962 6.69121C40.7962 6.69135 40.7962 6.69148 40.7962 6.69162C40.7962 6.69176 40.7962 6.69189 40.7962 6.69203C40.7962 6.69216 40.7962 6.6923 40.7962 6.69244C40.7962 6.69257 40.7962 6.69271 40.7962 6.69285C40.7962 6.69298 40.7962 6.69312 40.7962 6.69326C40.7962 6.6934 40.7962 6.69353 40.7962 6.69367C40.7962 6.69381 40.7962 6.69394 40.7962 6.69408C40.7962 6.69422 40.7962 6.69436 40.7962 6.69449C40.7962 6.69463 40.7962 6.69477 40.7962 6.6949C40.7962 6.69504 40.7962 6.69518 40.7962 6.69532C40.7962 6.69545 40.7962 6.69559 40.7962 6.69573C40.7962 6.69587 40.7962 6.69601 40.7962 6.69614C40.7962 6.69628 40.7962 6.69642 40.7962 6.69656C40.7962 6.6967 40.7962 6.69683 40.7962 6.69697C40.7962 6.69711 40.7962 6.69725 40.7962 6.69739C40.7962 6.69753 40.7962 6.69766 40.7962 6.6978C40.7962 6.69794 40.7962 6.69808 40.7962 6.69822C40.7962 6.69836 40.7962 6.69849 40.7962 6.69863C40.7962 6.69877 40.7962 6.69891 40.7962 6.69905C40.7962 6.69919 40.7962 6.69933 40.7962 6.69947C40.7962 6.6996 40.7962 6.69974 40.7962 6.69988C40.7962 6.70002 40.7962 6.70016 40.7962 6.7003C40.7962 6.70044 40.7962 6.70058 40.7962 6.70072C40.7962 6.70086 40.7962 6.701 40.7962 6.70114C40.7962 6.70128 40.7962 6.70142 40.7962 6.70156C40.7962 6.7017 40.7962 6.70184 40.7962 6.70197C40.7962 6.70212 40.7962 6.70226 40.7962 6.70239C40.7962 6.70253 40.7962 6.70267 40.7962 6.70282C40.7962 6.70296 40.7962 6.7031 40.7962 6.70324C40.7962 6.70338 40.7962 6.70352 40.7962 6.70366C40.7962 6.7038 40.7962 6.70394 40.7962 6.70408C40.7962 6.70422 40.7962 6.70436 40.7962 6.7045C40.7962 6.70464 40.7962 6.70478 40.7962 6.70492C40.7962 6.70506 40.7962 6.7052 40.7962 6.70534C40.7962 6.70548 40.7962 6.70563 40.7962 6.70577C40.7962 6.70591 40.7962 6.70605 40.7962 6.70619C40.7962 6.70633 40.7962 6.70647 40.7962 6.70661C40.7962 6.70675 40.7962 6.7069 40.7962 6.70704C40.7962 6.70718 40.7962 6.70732 40.7962 6.70746C40.7962 6.7076 40.7962 6.70775 40.7962 6.70789C40.7962 6.70803 40.7962 6.70817 40.7962 6.70831C40.7962 6.70845 40.7962 6.7086 40.7962 6.70874C40.7962 6.70888 40.7962 6.70902 40.7962 6.70916C40.7962 6.70931 40.7962 6.70945 40.7962 6.70959C40.7962 6.70973 40.7962 6.70988 40.7962 6.71002C40.7962 6.71016 40.7962 6.7103 40.7962 6.71045C40.7962 6.71059 40.7962 6.71073 40.7962 6.71087C40.7962 6.71102 40.7962 6.71116 40.7962 6.7113C40.7962 6.71144 40.7962 6.71159 40.7962 6.71173C40.7962 6.71187 40.7962 6.71202 40.7962 6.71216C40.7962 6.7123 40.7962 6.71245 40.7962 6.71259C40.7962 6.71273 40.7962 6.71288 40.7962 6.71302C40.7962 6.71316 40.7962 6.71331 40.7962 6.71345C40.7962 6.71359 40.7962 6.71374 40.7962 6.71388C40.7962 6.71402 40.7962 6.71417 40.7962 6.71431C40.7962 6.71445 40.7962 6.7146 40.7962 6.71474C40.7962 6.71489 40.7962 6.71503 40.7962 6.71517C40.7962 6.71532 40.7962 6.71546 40.7962 6.71561C40.7962 6.71575 40.7962 6.7159 40.7962 6.71604C40.7962 6.71618 40.7962 6.71633 40.7962 6.71647C40.7962 6.71662 40.7962 6.71676 40.7962 6.71691C40.7962 6.71705 40.7962 6.7172 40.7962 6.71734C40.7962 6.71749 40.7962 6.71763 40.7962 6.71778C40.7962 6.71792 40.7962 6.71807 40.7962 6.71821C40.7962 6.71836 40.7962 6.7185 40.7962 6.71865C40.7962 6.71879 40.7962 6.71894 40.7962 6.71908C40.7962 6.71923 40.7962 6.71937 40.7962 6.71952C40.7962 6.71966 40.7962 6.71981 40.7962 6.71995C40.7962 6.7201 40.7962 6.72024 40.7962 6.72039C40.7962 6.72054 40.7962 6.72068 40.7962 6.72083C40.7962 6.72097 40.7962 6.72112 40.7962 6.72127C40.7962 6.72141 40.7962 6.72156 40.7962 6.7217C40.7962 6.72185 40.7962 6.722 40.7962 6.72214C40.7962 6.72229 40.7962 6.72243 40.7962 6.72258C40.7962 6.72273 40.7962 6.72287 40.7962 6.72302C40.7962 6.72317 40.7962 6.72331 40.7962 6.72346C40.7962 6.72361 40.7962 6.72375 40.7962 6.7239C40.7962 6.72405 40.7962 6.72419 40.7962 6.72434C40.7962 6.72449 40.7962 6.72464 40.7962 6.72478C40.7962 6.72493 40.7962 6.72508 40.7962 6.72522C40.7962 6.72537 40.7962 6.72552 40.7962 6.72567C40.7962 6.72581 40.7962 6.72596 40.7962 6.72611C40.7962 6.72626 40.7962 6.7264 40.7962 6.72655C40.7962 6.7267 40.7962 6.72685 40.7962 6.72699C40.7962 6.72714 40.7962 6.72729 40.7962 6.72744C40.7962 6.72758 40.7962 6.72773 40.7962 6.72788C40.7962 6.72803 40.7962 6.72818 40.7962 6.72832C40.7962 6.72847 40.7962 6.72862 40.7962 6.72877C40.7962 6.72892 40.7962 6.72907 40.7962 6.72922C40.7962 6.72936 40.7962 6.72951 40.7962 6.72966C40.7962 6.72981 40.7962 6.72996 40.7962 6.73011C40.7962 6.73026 40.7962 6.7304 40.7962 6.73055C40.7962 6.7307 40.7962 6.73085 40.7962 6.731C40.7962 6.73115 40.7962 6.7313 40.7962 6.73145C40.7962 6.7316 40.7962 6.73175 40.7962 6.73189C40.7962 6.73204 40.7962 6.73219 40.7962 6.73234C40.7962 6.73249 40.7962 6.73264 40.7962 6.73279C40.7962 6.73294 40.7962 6.73309 40.7962 6.73324C40.7962 6.73339 40.7962 6.73354 40.7962 6.73369C40.7962 6.73384 40.7962 6.73399 40.7962 6.73414C40.7962 6.73429 40.7962 6.73444 40.7962 6.73459C40.7962 6.73474 40.7962 6.73489 40.7962 6.73504C40.7962 6.73519 40.7962 6.73534 40.7962 6.73549C40.7962 6.73564 40.7962 6.73579 40.7962 6.73594C40.7962 6.73609 40.7962 6.73624 40.7962 6.73639C40.7962 6.73654 40.7962 6.7367 40.7962 6.73685C40.7962 6.737 40.7962 6.73715 40.7962 6.7373C40.7962 6.73745 40.7962 6.7376 40.7962 6.73775C40.7962 6.7379 40.7962 6.73805 40.7962 6.7382C40.7962 6.73836 40.7962 6.73851 40.7962 6.73866C40.7962 6.73881 40.7962 6.73896 40.7962 6.73911C40.7962 6.73926 40.7962 6.73942 40.7962 6.73957C40.7962 6.73972 40.7962 6.73987 40.7962 6.74002C40.7962 6.74017 40.7962 6.74033 40.7962 6.74048C40.7962 6.74063 40.7962 6.74078 40.7962 6.74093C40.7962 6.74109 40.7962 6.74124 40.7962 6.74139C40.7962 6.74154 40.7962 6.74169 40.7962 6.74185C40.7962 6.742 40.7962 6.74215 40.7962 6.7423C40.7962 6.74246 40.7962 6.74261 40.7962 6.74276C40.7962 6.74291 40.7962 6.74307 40.7962 6.74322C40.7962 6.74337 40.7962 6.74352 40.7962 6.74368C40.7962 6.74383 40.7962 6.74398 40.7962 6.74414C40.7962 6.74429 40.7962 6.74444 40.7962 6.7446C40.7962 6.74475 40.7962 6.7449 40.7962 6.74506C40.7962 6.74521 40.7962 6.74536 40.7962 6.74551C40.7962 6.74567 40.7962 6.74582 40.7962 6.74598C40.7962 6.74613 40.7962 6.74628 40.7962 6.74644C40.7962 6.74659 40.7962 6.74674 40.7962 6.7469C40.7962 6.74705 40.7962 6.7472 40.7962 6.74736C40.7962 6.74751 40.7962 6.74767 40.7962 6.74782C40.7962 6.74798 40.7962 6.74813 40.7962 6.74828C40.7962 6.74844 40.7962 6.74859 40.7962 6.74875C40.7962 6.7489 40.7962 6.74905 40.7962 6.74921C40.7962 6.74936 40.7962 6.74952 40.7962 6.74967C40.7962 6.74983 40.7962 6.74998 40.7962 6.75014C40.7962 6.75029 40.7962 6.75045 40.7962 6.7506C40.7962 6.75076 40.7962 6.75091 40.7962 6.75107C40.7962 6.75122 40.7962 6.75138 40.7962 6.75153C40.7962 6.75169 40.7962 6.75184 40.7962 6.752C40.7962 6.75215 40.7962 6.75231 40.7962 6.75246C40.7962 6.75262 40.7962 6.75278 40.7962 6.75293C40.7962 6.75309 40.7962 6.75324 40.7962 6.7534C40.7962 6.75355 40.7962 6.75371 40.7962 6.75387C40.7962 6.75402 40.7962 6.75418 40.7962 6.75433C40.7962 6.75449 40.7962 6.75465 40.7962 6.7548C40.7962 6.75496 40.7962 6.75511 40.7962 6.75527C40.7962 6.75543 40.7962 6.75558 40.7962 6.75574C40.7962 6.7559 40.7962 6.75605 40.7962 6.75621C40.7962 6.75636 40.7962 6.75652 40.7962 6.75668C40.7962 6.75683 40.7962 6.75699 40.7962 6.75715C40.7962 6.75731 40.7962 6.75746 40.7962 6.75762C40.7962 6.75778 40.7962 6.75793 40.7962 6.75809C40.7962 6.75825 40.7962 6.7584 40.7962 6.75856C40.7962 6.75872 40.7962 6.75888 40.7962 6.75903C40.7962 6.75919 40.7962 6.75935 40.7962 6.75951C40.7962 6.75966 40.7962 6.75982 40.7962 6.75998C40.7962 6.76014 40.7962 6.76029 40.7962 6.76045C40.7962 6.76061 40.7962 6.76077 40.7962 6.76093C40.7962 6.76108 40.7962 6.76124 40.7962 6.7614C40.7962 6.76156 40.7962 6.76172 40.7962 6.76187C40.7962 6.76203 40.7962 6.76219 40.7962 6.76235C40.7962 6.76251 40.7962 6.76267 40.7962 6.76282C40.7962 6.76298 40.7962 6.76314 40.7962 6.7633C40.7962 6.76346 40.7962 6.76362 40.7962 6.76378C40.7962 6.76393 40.7962 6.76409 40.7962 6.76425C40.7962 6.76441 40.7962 6.76457 40.7962 6.76473C40.7962 6.76489 40.7962 6.76505 40.7962 6.76521C40.7962 6.76537 40.7962 6.76552 40.7962 6.76568C40.7962 6.76584 40.7962 6.766 40.7962 6.76616C40.7962 6.76632 40.7962 6.76648 40.7962 6.76664C40.7962 6.7668 40.7962 6.76696 40.7962 6.76712C40.7962 6.76728 40.7962 6.76744 40.7962 6.7676C40.7962 6.76776 40.7962 6.76792 40.7962 6.76808C40.7962 6.76824 40.7962 6.7684 40.7962 6.76856C40.7962 6.76872 40.7962 6.76888 40.7962 6.76904C40.7962 6.7692 40.7962 6.76936 40.7962 6.76952C40.7962 6.76968 40.7962 6.76984 40.7962 6.77C40.7962 6.77016 40.7962 6.77032 40.7962 6.77048C40.7962 6.77064 40.7962 6.77081 40.7962 6.77097C40.7962 6.77113 40.7962 6.77129 40.7962 6.77145C40.7962 6.77161 40.7962 6.77177 40.7962 6.77193C40.7962 6.77209 40.7962 6.77225 40.7962 6.77242C40.7962 6.77258 40.7962 6.77274 40.7962 6.7729C40.7962 6.77306 40.7962 6.77322 40.7962 6.77338C40.7962 6.77355 40.7962 6.77371 40.7962 6.77387C40.7962 6.77403 40.7962 6.77419 40.7962 6.77435C40.7962 6.77452 40.7962 6.77468 40.7962 6.77484C40.7962 6.775 40.7962 6.77516 40.7962 6.77532C40.7962 6.77549 40.7962 6.77565 40.7962 6.77581C40.7962 6.77597 40.7962 6.77614 40.7962 6.7763C40.7962 6.77646 40.7962 6.77662 40.7962 6.77678C40.7962 6.77695 40.7962 6.77711 40.7962 6.77727C40.7962 6.77744 40.7962 6.7776 40.7962 6.77776C40.7962 6.77792 40.7962 6.77809 40.7962 6.77825C40.7962 6.77841 40.7962 6.77857 40.7962 6.77874C40.7962 6.7789 40.7962 6.77906 40.7962 6.77923C40.7962 6.77939 40.7962 6.77955 40.7962 6.77972C40.7962 6.77988 40.7962 6.78004 40.7962 6.78021C40.7962 6.78037 40.7962 6.78053 40.7962 6.7807C40.7962 6.78086 40.7962 6.78102 40.7962 6.78119C40.7962 6.78135 40.7962 6.78152 40.7962 6.78168C40.7962 6.78184 40.7962 6.78201 40.7962 6.78217C40.7962 6.78234 40.7962 6.7825 40.7962 6.78266C40.7962 6.78283 40.7962 6.78299 40.7962 6.78316C40.7962 6.78332 40.7962 6.78348 40.7962 6.78365C40.7962 6.78381 40.7962 6.78398 40.7962 6.78414C40.7962 6.78431 40.7962 6.78447 40.7962 6.78464C40.7962 6.7848 40.7962 6.78497 40.7962 6.78513C40.7962 6.78529 40.7962 6.78546 40.7962 6.78562C40.7962 6.78579 40.7962 6.78595 40.7962 6.78612C40.7962 6.78628 40.7962 6.78645 40.7962 6.78662C40.7962 6.78678 40.7962 6.78695 40.7962 6.78711C40.7962 6.78728 40.7962 6.78744 40.7962 6.78761C40.7962 6.78777 40.7962 6.78794 40.7962 6.7881C40.7962 6.78827 40.7962 6.78843 40.7962 6.7886C40.7962 6.78877 40.7962 6.78893 40.7962 6.7891C40.7962 6.78926 40.7962 6.78943 40.7962 6.7896C40.7962 6.78976 40.7962 6.78993 40.7962 6.79009C40.7962 6.79026 40.7962 6.79043 40.7962 6.79059C40.7962 6.79076 40.7962 6.79093 40.7962 6.79109C40.7962 6.79126 40.7962 6.79142 40.7962 6.79159C40.7962 6.79176 40.7962 6.79192 40.7962 6.79209C40.7962 6.79226 40.7962 6.79243 40.7962 6.79259C40.7962 6.79276 40.7962 6.79293 40.7962 6.79309C40.7962 6.79326 40.7962 6.79343 40.7962 6.79359C40.7962 6.79376 40.7962 6.79393 40.7962 6.7941C40.7962 6.79426 40.7962 6.79443 40.7962 6.7946C40.7962 6.79476 40.7962 6.79493 40.7962 6.7951C40.7962 6.79527 40.7962 6.79543 40.7962 6.7956C40.7962 6.79577 40.7962 6.79594 40.7962 6.79611C40.7962 6.79627 40.7962 6.79644 40.7962 6.79661C40.7962 6.79678 40.7962 6.79695 40.7962 6.79711C40.7962 6.79728 40.7962 6.79745 40.7962 6.79762C40.7962 6.79779 40.7962 6.79795 40.7962 6.79812C40.7962 6.79829 40.7962 6.79846 40.7962 6.79863C40.7962 6.7988 40.7962 6.79897 40.7962 6.79913C40.7962 6.7993 40.7962 6.79947 40.7962 6.79964C40.7962 6.79981 40.7962 6.79998 40.7962 6.80015C40.7962 6.80032 40.7962 6.80048 40.7962 6.80065C40.7962 6.80082 40.7962 6.80099 40.7962 6.80116C40.7962 6.80133 40.7962 6.8015 40.7962 6.80167C40.7962 6.80184 40.7962 6.80201 40.7962 6.80218C40.7962 6.80235 40.7962 6.80252 40.7962 6.80269C40.7962 6.80286 40.7962 6.80303 40.7962 6.80319C40.7962 6.80336 40.7962 6.80353 40.7962 6.8037C40.7962 6.80387 40.7962 6.80404 40.7962 6.80421C40.7962 6.80438 40.7962 6.80455 40.7962 6.80472C40.7962 6.80489 40.7962 6.80506 40.7962 6.80523C40.7962 6.80541 40.7962 6.80558 40.7962 6.80575C40.7962 6.80592 40.7962 6.80609 40.7962 6.80626C40.7962 6.80643 40.7962 6.8066 40.7962 6.80677C40.7962 6.80694 40.7962 6.80711 40.7962 6.80728C40.7962 6.80745 40.7962 6.80762 40.7962 6.80779C40.7962 6.80797 40.7962 6.80814 40.7962 6.80831C40.7962 6.80848 40.7962 6.80865 40.7962 6.80882C40.7962 6.80899 40.7962 6.80916 40.7962 6.80933C40.7962 6.80951 40.7962 6.80968 40.7962 6.80985C40.7962 6.81002 40.7962 6.81019 40.7962 6.81036C40.7962 6.81054 40.7962 6.81071 40.7962 6.81088C40.7962 6.81105 40.7962 6.81122 40.7962 6.81139C40.7962 6.81157 40.7962 6.81174 40.7962 6.81191C40.7962 6.81208 40.7962 6.81225 40.7962 6.81243C40.7962 6.8126 40.7962 6.81277 40.7962 6.81294C40.7962 6.81312 40.7962 6.81329 40.7962 6.81346C40.7962 6.81363 40.7962 6.81381 40.7962 6.81398C40.7962 6.81415 40.7962 6.81432 40.7962 6.8145C40.7962 6.81467 40.7962 6.81484 40.7962 6.81502C40.7962 6.81519 40.7962 6.81536 40.7962 6.81553C40.7962 6.81571 40.7962 6.81588 40.7962 6.81605C40.7962 6.81623 40.7962 6.8164 40.7962 6.81657C40.7962 6.81675 40.7962 6.81692 40.7962 6.81709C40.7962 6.81727 40.7962 6.81744 40.7962 6.81761C40.7962 6.81779 40.7962 6.81796 40.7962 6.81814C40.7962 6.81831 40.7962 6.81848 40.7962 6.81866C40.7962 6.81883 40.7962 6.819 40.7962 6.81918C40.7962 6.81935 40.7962 6.81953 40.7962 6.8197C40.7962 6.81987 40.7962 6.82005 40.7962 6.82022C40.7962 6.8204 40.7962 6.82057 40.7962 6.82075C40.7962 6.82092 40.7962 6.8211 40.7962 6.82127C40.7962 6.82144 40.7962 6.82162 40.7962 6.82179C40.7962 6.82197 40.7962 6.82214 40.7962 6.82232C40.7962 6.82249 40.7962 6.82267 40.7962 6.82284C40.7962 6.82302 40.7962 6.82319 40.7962 6.82337C40.7962 6.82354 40.7962 6.82372 40.7962 6.82389C40.7962 6.82407 40.7962 6.82424 40.7962 6.82442C40.7962 6.82459 40.7962 6.82477 40.7962 6.82495C40.7962 6.82512 40.7962 6.8253 40.7962 6.82547C40.7962 6.82565 40.7962 6.82582 40.7962 6.826H42.7962ZM42.7962 6.61C42.7962 6.62225 42.7946 6.63167 42.7933 6.63653L40.8531 6.15147C40.8158 6.30033 40.7962 6.45375 40.7962 6.61H42.7962ZM42.8075 6.5703C42.9951 5.52323 43.4035 4.62998 44.0275 3.86908L42.4809 2.60092C41.6289 3.64001 41.0833 4.85277 40.8389 6.2177L42.8075 6.5703ZM44.0199 3.87819C44.6863 3.08485 45.474 2.47124 46.3889 2.02955L45.5194 0.228447C44.3464 0.794758 43.3341 1.58515 42.4885 2.59181L44.0199 3.87819ZM46.3829 2.03242C47.316 1.58962 48.268 1.373 49.2482 1.373V-0.627002C47.9604 -0.627002 46.7164 -0.339619 45.5255 0.225573L46.3829 2.03242ZM49.2482 1.373C50.2964 1.373 51.4398 1.53688 52.683 1.87746L53.2114 -0.0514586C51.8265 -0.430879 50.504 -0.627002 49.2482 -0.627002V1.373ZM52.6985 1.88158C53.9641 2.20654 55.2647 2.67927 56.6007 3.30388L57.4477 1.49212C56.0117 0.820732 54.5943 0.303458 53.1959 -0.0555835L52.6985 1.88158ZM56.0785 2.07308L54.5665 6.47408L56.4579 7.12392L57.9699 2.72292L56.0785 2.07308ZM56.2101 6.08277C54.7842 4.69345 53.5235 3.6336 52.435 2.93382L51.3534 4.61618C52.2809 5.2124 53.4322 6.16855 54.8143 7.51523L56.2101 6.08277ZM52.435 2.93382C51.3179 2.21571 50.1778 1.803 49.0322 1.803V3.803C49.6866 3.803 50.4545 4.03829 51.3534 4.61618L52.435 2.93382ZM49.0322 1.803C47.9004 1.803 46.8752 2.08743 46.1098 2.80011L47.4726 4.26389C47.7511 4.00457 48.22 3.803 49.0322 3.803V1.803ZM46.1107 2.79921C45.3318 3.52254 45.008 4.62387 44.9293 5.84362L46.9251 5.97238C46.9904 4.96013 47.2426 4.47746 47.4716 4.26479L46.1107 2.79921ZM44.9272 5.908V5.989H46.9272V5.908H44.9272ZM44.9272 5.989C44.9272 6.76176 45.3181 7.41511 45.8411 7.93811L47.2553 6.52389C46.9503 6.21889 46.9272 6.04424 46.9272 5.989H44.9272ZM45.8411 7.93811C46.3231 8.4201 46.9364 8.88774 47.6612 9.34549L48.7292 7.65451C48.0859 7.24825 47.6013 6.8699 47.2553 6.52389L45.8411 7.93811ZM47.6774 9.3555C48.3735 9.77683 49.1314 10.2151 49.9506 10.6702L50.9218 8.92184C50.121 8.47694 49.3849 8.05117 48.713 7.6445L47.6774 9.3555ZM49.9736 10.6826C50.7838 11.1053 51.5855 11.5546 52.3787 12.0305L53.4077 10.3155C52.5809 9.81941 51.7446 9.3507 50.8988 8.90941L49.9736 10.6826ZM52.4011 12.0436C53.1885 12.4886 53.9013 12.9644 54.5415 13.4699L55.7808 11.9001C55.0531 11.3256 54.2539 10.7934 53.3853 10.3024L52.4011 12.0436ZM54.5545 13.4799C55.1712 13.9506 55.643 14.4361 55.9878 14.9308L57.6286 13.7872C57.1454 13.0939 56.5192 12.4634 55.7679 11.89L54.5545 13.4799ZM55.9962 14.9426C56.2964 15.3603 56.4292 15.7794 56.4292 16.222H58.4292C58.4292 15.3326 58.148 14.5097 57.6202 13.7754L55.9962 14.9426ZM56.4292 16.222V16.438H58.4292V16.222H56.4292ZM69.9283 21.784L69.5047 22.6898L69.5134 22.6939L69.5222 22.6978L69.9283 21.784ZM66.7693 19.543L66.0688 20.2566L66.7693 19.543ZM64.0423 7.717L63.1012 7.37879L63.0983 7.38732L64.0423 7.717ZM65.6893 4.639L66.4855 5.24408L65.6893 4.639ZM67.9843 2.344L68.5817 3.14612L68.5924 3.13788L67.9843 2.344ZM70.5763 0.885998L70.9212 1.82473L70.9316 1.82078L70.5763 0.885998ZM75.7063 0.885998L75.3448 1.81838L75.3511 1.82078L75.7063 0.885998ZM78.2983 2.371L77.682 3.1585L77.6915 3.16589L77.7011 3.17304L78.2983 2.371ZM82.2133 7.717L83.1574 7.38732L82.2133 7.717ZM81.8893 16.033L80.9765 15.6246L81.8893 16.033ZM79.5133 19.543L78.8062 18.8359L79.5133 19.543ZM76.3813 21.784L76.793 22.6955L76.805 22.6898L76.3813 21.784ZM76.4893 19.381L75.8368 18.6232L76.4893 19.381ZM78.0013 17.059L77.065 16.7079L77.0616 16.7173L78.0013 17.059ZM77.9473 8.824L76.9902 9.11366L76.9913 9.11719L77.9473 8.824ZM76.3273 5.422L75.5235 6.01684L76.3273 5.422ZM74.1943 3.397L73.6737 4.25084L73.6829 4.25629L74.1943 3.397ZM69.8473 3.559L70.4771 4.33576L70.4834 4.33069L70.4896 4.32552L69.8473 3.559ZM68.2543 5.827L67.3283 5.4497L67.3252 5.4571L67.3223 5.46455L68.2543 5.827ZM68.3083 14.224L67.3501 14.5102L67.3536 14.5216L68.3083 14.224ZM69.9553 17.626L69.1572 18.2287L69.1651 18.2388L69.9553 17.626ZM72.1153 19.597L71.6192 20.4652L71.6271 20.4697L71.635 20.4741L72.1153 19.597ZM73.1683 21.54C72.3084 21.54 71.3669 21.329 70.3345 20.8702L69.5222 22.6978C70.7578 23.247 71.9763 23.54 73.1683 23.54V21.54ZM70.352 20.8782C69.3506 20.4098 68.3893 19.732 67.4699 18.8294L66.0688 20.2566C67.1294 21.298 68.2741 22.1142 69.5047 22.6898L70.352 20.8782ZM67.4699 18.8294C66.5761 17.9518 65.8442 16.8877 65.2792 15.6246L63.4535 16.4414C64.1125 17.9143 64.9826 19.1902 66.0688 20.2566L67.4699 18.8294ZM65.2792 15.6246C64.7322 14.402 64.4483 13.0051 64.4483 11.416H62.4483C62.4483 13.2469 62.7765 14.928 63.4535 16.4414L65.2792 15.6246ZM64.4483 11.416C64.4483 10.1841 64.6312 9.06381 64.9864 8.04668L63.0983 7.38732C62.6614 8.63819 62.4483 9.9839 62.4483 11.416H64.4483ZM64.9834 8.0552C65.3658 6.9911 65.868 6.05658 66.4855 5.24408L64.8932 4.03392C64.1427 5.02142 63.5469 6.1389 63.1013 7.3788L64.9834 8.0552ZM66.4855 5.24408C67.1168 4.4134 67.816 3.71617 68.5816 3.14604L67.3871 1.54196C66.4607 2.23183 65.6299 3.0646 64.8932 4.03392L66.4855 5.24408ZM68.5924 3.13788C69.369 2.54305 70.1454 2.10964 70.9212 1.82467L70.2315 -0.0526714C69.2433 0.31036 68.2917 0.848951 67.3763 1.55012L68.5924 3.13788ZM70.9316 1.82078C71.7363 1.515 72.4798 1.373 73.1683 1.373V-0.627002C72.2009 -0.627002 71.2164 -0.426998 70.2211 -0.0487854L70.9316 1.82078ZM73.1683 1.373C73.8358 1.373 74.5591 1.51368 75.3448 1.81836L76.0679 -0.0463631C75.0896 -0.425688 74.1209 -0.627002 73.1683 -0.627002V1.373ZM75.3511 1.82078C76.149 2.12396 76.9259 2.56677 77.682 3.1585L78.9146 1.58349C78.0148 0.879228 77.0637 0.332036 76.0616 -0.048785L75.3511 1.82078ZM77.7011 3.17304C78.4667 3.74317 79.1659 4.4404 79.7972 5.27108L81.3895 4.06092C80.6528 3.0916 79.822 2.25883 78.8956 1.56896L77.7011 3.17304ZM79.7972 5.27108C80.4139 6.08252 80.9056 7.00546 81.2693 8.04668L83.1574 7.38732C82.729 6.16054 82.1408 5.04947 81.3895 4.06092L79.7972 5.27108ZM81.2693 8.04668C81.6244 9.06381 81.8073 10.1841 81.8073 11.416H83.8073C83.8073 9.9839 83.5942 8.63819 83.1574 7.38732L81.2693 8.04668ZM81.8073 11.416C81.8073 13.0051 81.5235 14.402 80.9765 15.6246L82.8022 16.4414C83.4792 14.928 83.8073 13.2469 83.8073 11.416H81.8073ZM80.9765 15.6246C80.4098 16.8914 79.6846 17.9576 78.8062 18.8359L80.2205 20.2501C81.2861 19.1844 82.1449 17.9106 82.8022 16.4414L80.9765 15.6246ZM78.8062 18.8359C77.907 19.7351 76.9569 20.4108 75.9577 20.8782L76.805 22.6898C78.0378 22.1132 79.1757 21.2949 80.2205 20.2501L78.8062 18.8359ZM75.9698 20.8726C74.9585 21.3293 74.0277 21.54 73.1683 21.54V23.54C74.361 23.54 75.5722 23.2467 76.7929 22.6954L75.9698 20.8726ZM74.2483 21.218C75.3367 21.218 76.3145 20.8512 77.1419 20.1388L75.8368 18.6232C75.3681 19.0268 74.852 19.218 74.2483 19.218V21.218ZM77.1419 20.1388C77.9465 19.4459 78.536 18.5148 78.9411 17.4007L77.0616 16.7173C76.7467 17.5832 76.3281 18.2001 75.8368 18.6232L77.1419 20.1388ZM78.9377 17.4101C79.3659 16.2681 79.5683 14.9843 79.5683 13.576H77.5683C77.5683 14.7957 77.3928 15.8339 77.065 16.7079L78.9377 17.4101ZM79.5683 13.576C79.5683 11.6856 79.3535 9.99856 78.9034 8.53081L76.9913 9.11719C77.3692 10.3494 77.5683 11.8304 77.5683 13.576H79.5683ZM78.9045 8.53434C78.466 7.08549 77.8813 5.84085 77.1312 4.82716L75.5235 6.01684C76.1054 6.80315 76.6007 7.8265 76.9902 9.11366L78.9045 8.53434ZM77.1312 4.82716C76.4069 3.84842 75.6023 3.07135 74.7058 2.53771L73.6829 4.25629C74.2983 4.62265 74.9158 5.19558 75.5235 6.01684L77.1312 4.82716ZM74.715 2.5432C73.8659 2.02551 72.9851 1.722 72.0883 1.722V3.722C72.5236 3.722 73.0468 3.86849 73.6737 4.2508L74.715 2.5432ZM72.0883 1.722C71.0132 1.722 70.0415 2.09173 69.2051 2.79248L70.4896 4.32552C70.9852 3.91027 71.5075 3.722 72.0883 3.722V1.722ZM69.2175 2.78224C68.3945 3.44961 67.7737 4.35635 67.3283 5.4497L69.1804 6.2043C69.527 5.35365 69.9682 4.74839 70.4771 4.33576L69.2175 2.78224ZM67.3223 5.46455C66.8894 6.57782 66.6873 7.84896 66.6873 9.256H68.6873C68.6873 8.03504 68.8633 7.02018 69.1863 6.18945L67.3223 5.46455ZM66.6873 9.256C66.6873 11.2489 66.901 13.0064 67.3502 14.5102L69.2665 13.9378C68.8877 12.6696 68.6873 11.1151 68.6873 9.256H66.6873ZM67.3536 14.5216C67.8098 15.985 68.404 17.231 69.1573 18.2286L70.7534 17.0234C70.1747 16.257 69.6709 15.235 69.263 13.9264L67.3536 14.5216ZM69.1651 18.2388C69.9078 19.1965 70.7222 19.9527 71.6192 20.4652L72.6115 18.7288C71.9965 18.3773 71.3709 17.8195 70.7456 17.0132L69.1651 18.2388ZM71.635 20.4741C72.4962 20.9457 73.3722 21.218 74.2483 21.218V19.218C73.7925 19.218 73.2465 19.0763 72.5957 18.7199L71.635 20.4741ZM106.906 22L105.907 22.0495L105.954 23H106.906V22ZM106.123 6.205L107.122 6.15549L105.207 5.80371L106.123 6.205ZM100.102 19.948V20.948H100.756L101.018 20.3493L100.102 19.948ZM99.9129 19.948L98.9977 20.3508L99.2605 20.948H99.9129V19.948ZM93.8649 6.205L94.7802 5.8022L93.3934 2.65089L92.8763 6.0548L93.8649 6.205ZM91.4079 22.378V23.378H92.2675L92.3966 22.5282L91.4079 22.378ZM91.0029 22.378L90.0053 22.4471L90.0698 23.378H91.0029V22.378ZM89.5179 0.939999V-0.0600009H88.4463L88.5203 1.0091L89.5179 0.939999ZM94.4859 0.939999L95.3429 0.424568L95.0514 -0.0600009H94.4859V0.939999ZM101.047 11.848L100.19 12.3634L101.165 13.9837L101.955 12.2662L101.047 11.848ZM106.069 0.939999V-0.0600009H105.428L105.161 0.521796L106.069 0.939999ZM110.47 0.939999L111.47 0.959226L111.489 -0.0600009H110.47V0.939999ZM110.065 22V23H111.046L111.065 22.0192L110.065 22ZM107.905 21.9505L107.122 6.15549L105.124 6.25451L105.907 22.0495L107.905 21.9505ZM105.207 5.80371L99.186 19.5467L101.018 20.3493L107.039 6.60629L105.207 5.80371ZM100.102 18.948H99.9129V20.948H100.102V18.948ZM100.828 19.5452L94.7802 5.8022L92.9497 6.6078L98.9977 20.3508L100.828 19.5452ZM92.8763 6.0548L90.4193 22.2278L92.3966 22.5282L94.8536 6.3552L92.8763 6.0548ZM91.4079 21.378H91.0029V23.378H91.4079V21.378ZM92.0006 22.3089L90.5156 0.870895L88.5203 1.0091L90.0053 22.4471L92.0006 22.3089ZM89.5179 1.94H94.4859V-0.0600009H89.5179V1.94ZM93.629 1.45543L100.19 12.3634L101.904 11.3326L95.3429 0.424568L93.629 1.45543ZM101.955 12.2662L106.977 1.3582L105.161 0.521796L100.139 11.4298L101.955 12.2662ZM106.069 1.94H110.47V-0.0600009H106.069V1.94ZM109.47 0.920772L109.065 21.9808L111.065 22.0192L111.47 0.959226L109.47 0.920772ZM110.065 21H106.906V23H110.065V21ZM133.941 22.351L133.121 22.9227L133.419 23.351H133.941V22.351ZM122.709 6.232L123.53 5.66029L122.091 3.59588L121.72 6.08455L122.709 6.232ZM120.306 22.351V23.351H121.168L121.295 22.4984L120.306 22.351ZM119.874 22.351L118.877 22.4314L118.952 23.351H119.874V22.351ZM118.146 0.939999V-0.0600009H117.062L117.149 1.02044L118.146 0.939999ZM122.574 0.939999L123.345 0.303118L123.045 -0.0600009H122.574V0.939999ZM131.808 12.118L131.037 12.7549L132.298 14.2813L132.778 12.3605L131.808 12.118ZM134.67 0.669999V-0.330001H133.889L133.7 0.427464L134.67 0.669999ZM135.183 0.669999L136.182 0.717269L136.232 -0.330001H135.183V0.669999ZM134.157 22.351V23.351H135.111L135.156 22.3983L134.157 22.351ZM134.762 21.7793L123.53 5.66029L121.889 6.80371L133.121 22.9227L134.762 21.7793ZM121.72 6.08455L119.317 22.2036L121.295 22.4984L123.698 6.37945L121.72 6.08455ZM120.306 21.351H119.874V23.351H120.306V21.351ZM120.871 22.2706L119.143 0.859555L117.149 1.02044L118.877 22.4314L120.871 22.2706ZM118.146 1.94H122.574V-0.0600009H118.146V1.94ZM121.803 1.57688L131.037 12.7549L132.579 11.4811L123.345 0.303118L121.803 1.57688ZM132.778 12.3605L135.64 0.912535L133.7 0.427464L130.838 11.8755L132.778 12.3605ZM134.67 1.67H135.183V-0.330001H134.67V1.67ZM134.184 0.62273L133.158 22.3037L135.156 22.3983L136.182 0.717269L134.184 0.62273ZM134.157 21.351H133.941V23.351H134.157V21.351ZM143.844 22L142.844 22.0359L142.879 23H143.844V22ZM143.088 0.939999V-0.0600009H142.051L142.088 0.975873L143.088 0.939999ZM148.164 0.939999L149.163 0.975873L149.2 -0.0600009H148.164V0.939999ZM147.408 22V23H148.372L148.407 22.0359L147.408 22ZM144.843 21.9641L144.087 0.904125L142.088 0.975873L142.844 22.0359L144.843 21.9641ZM143.088 1.94H148.164V-0.0600009H143.088V1.94ZM147.164 0.904125L146.408 21.9641L148.407 22.0359L149.163 0.975873L147.164 0.904125ZM147.408 21H143.844V23H147.408V21ZM170.713 22.297L169.808 22.7211L170.111 23.3694L170.823 23.291L170.713 22.297ZM167.527 15.493L168.433 15.0689L168.109 14.3766L167.356 14.5078L167.527 15.493ZM156.835 17.356L156.664 16.3708L156.199 16.4518L155.966 16.8619L156.835 17.356ZM154.027 22.297V23.297H154.609L154.897 22.7911L154.027 22.297ZM153.622 22.297L152.677 21.9704L152.219 23.297H153.622V22.297ZM160.993 0.966999L160.843 -0.0216606L160.246 0.069109L160.048 0.640381L160.993 0.966999ZM165.259 0.318999L166.188 -0.0519917L165.894 -0.788817L165.109 -0.66966L165.259 0.318999ZM173.899 21.946L174.009 22.94L175.316 22.796L174.828 21.575L173.899 21.946ZM163.126 6.097L164.033 5.67457L163.208 3.90399L162.254 5.60868L163.126 6.097ZM158.941 13.576L158.069 13.0877L157.365 14.3456L158.79 14.5644L158.941 13.576ZM167.203 14.845L167.052 15.8334L168.9 16.1173L168.11 14.4226L167.203 14.845ZM171.619 21.8729L168.433 15.0689L166.622 15.9171L169.808 22.7211L171.619 21.8729ZM167.356 14.5078L156.664 16.3708L157.007 18.3412L167.699 16.4782L167.356 14.5078ZM155.966 16.8619L153.158 21.8029L154.897 22.7911L157.705 17.8501L155.966 16.8619ZM154.027 21.297H153.622V23.297H154.027V21.297ZM154.568 22.6236L161.939 1.29362L160.048 0.640381L152.677 21.9704L154.568 22.6236ZM161.144 1.95566L165.41 1.30766L165.109 -0.66966L160.843 -0.0216606L161.144 1.95566ZM164.331 0.68999L172.971 22.317L174.828 21.575L166.188 -0.0519917L164.331 0.68999ZM173.79 20.952L170.604 21.303L170.823 23.291L174.009 22.94L173.79 20.952ZM162.254 5.60868L158.069 13.0877L159.814 14.0643L163.999 6.58531L162.254 5.60868ZM158.79 14.5644L167.052 15.8334L167.355 13.8566L159.093 12.5876L158.79 14.5644ZM168.11 14.4226L164.033 5.67457L162.22 6.51942L166.297 15.2674L168.11 14.4226Z" fill="#34366F" mask="url(#path-1-outside-1_4_14)"/>
</g>
<defs>
<filter id="filter0_d_4_14" x="0.484009" y="0.319" width="177.415" height="30.221" filterUnits="userSpaceOnUse" color-interpolation-filters="sRGB">
<feFlood flood-opacity="0" result="BackgroundImageFix"/>
<feColorMatrix in="SourceAlpha" type="matrix" values="0 0 0 0 0 0 0 0 0 0 0 0 0 0 0 0 0 0 127 0" result="hardAlpha"/>
<feOffset dy="4"/>
<feGaussianBlur stdDeviation="2"/>
<feComposite in2="hardAlpha" operator="out"/>
<feColorMatrix type="matrix" values="0 0 0 0 0 0 0 0 0 0 0 0 0 0 0 0 0 0 0.25 0"/>
<feBlend mode="normal" in2="BackgroundImageFix" result="effect1_dropShadow_4_14"/>
<feBlend mode="normal" in="SourceGraphic" in2="effect1_dropShadow_4_14" result="shape"/>
</filter>
</defs>
</svg>
